<svg width="4029" height="1912" xmlns="http://www.w3.org/2000/svg" xmlns:xlink="http://www.w3.org/1999/xlink" xml:space="preserve" overflow="hidden"><defs><filter id="fx0" x="-10%" y="-10%" width="120%" height="120%" filterUnits="userSpaceOnUse" primitiveUnits="userSpaceOnUse"><feComponentTransfer color-interpolation-filters="sRGB"><feFuncR type="discrete" tableValues="0.000000 0.000000"/><feFuncG type="discrete" tableValues="0.439216 0.439216"/><feFuncB type="discrete" tableValues="0.949020 0.949020"/><feFuncA type="linear" slope="0.549020" intercept="0.000000"/></feComponentTransfer><feGaussianBlur stdDeviation="7.638889 7.638889"/></filter><filter id="fx1" x="-10%" y="-10%" width="120%" height="120%" filterUnits="userSpaceOnUse" primitiveUnits="userSpaceOnUse"><feComponentTransfer color-interpolation-filters="sRGB"><feFuncR type="discrete" tableValues="0.000000 0.000000"/><feFuncG type="discrete" tableValues="0.439216 0.439216"/><feFuncB type="discrete" tableValues="0.949020 0.949020"/><feFuncA type="linear" slope="0.549020" intercept="0.000000"/></feComponentTransfer><feGaussianBlur stdDeviation="7.638889 7.638889"/></filter><filter id="fx2" x="-10%" y="-10%" width="120%" height="120%" filterUnits="userSpaceOnUse" primitiveUnits="userSpaceOnUse"><feComponentTransfer color-interpolation-filters="sRGB"><feFuncR type="discrete" tableValues="0.000000 0.000000"/><feFuncG type="discrete" tableValues="0.439216 0.439216"/><feFuncB type="discrete" tableValues="0.949020 0.949020"/><feFuncA type="linear" slope="0.549020" intercept="0.000000"/></feComponentTransfer><feGaussianBlur stdDeviation="7.638889 7.638889"/></filter><filter id="fx3" x="-10%" y="-10%" width="120%" height="120%" filterUnits="userSpaceOnUse" primitiveUnits="userSpaceOnUse"><feComponentTransfer color-interpolation-filters="sRGB"><feFuncR type="discrete" tableValues="0.000000 0.000000"/><feFuncG type="discrete" tableValues="0.439216 0.439216"/><feFuncB type="discrete" tableValues="0.949020 0.949020"/><feFuncA type="linear" slope="0.549020" intercept="0.000000"/></feComponentTransfer><feGaussianBlur stdDeviation="7.638889 7.638889"/></filter><linearGradient x1="3248.5" y1="1064.5" x2="1151.5" y2="3161.5" gradientUnits="userSpaceOnUse" spreadMethod="reflect" id="fill4"><stop offset="0" stop-color="#A6E0FF" stop-opacity="1"/><stop offset="0.78" stop-color="#D1EFFF" stop-opacity="1"/><stop offset="1" stop-color="#D1EFFF" stop-opacity="1"/></linearGradient><linearGradient x1="3533.25" y1="-14.7501" x2="866.75" y2="2651.75" gradientUnits="userSpaceOnUse" spreadMethod="reflect" id="fill5"><stop offset="0" stop-color="#A6E0FF" stop-opacity="1"/><stop offset="0.78" stop-color="#D1EFFF" stop-opacity="1"/><stop offset="1" stop-color="#D1EFFF" stop-opacity="1"/></linearGradient><linearGradient x1="188.3" y1="2277.5" x2="4213.16" y2="2277.5" gradientUnits="userSpaceOnUse" spreadMethod="reflect" id="fill6"><stop offset="0" stop-color="#4DB1FF" stop-opacity="1"/><stop offset="0.4" stop-color="#D1EFFF" stop-opacity="1"/><stop offset="0.5" stop-color="#D1EFFF" stop-opacity="1"/><stop offset="0.6" stop-color="#D1EFFF" stop-opacity="1"/><stop offset="1" stop-color="#4DB1FF" stop-opacity="1"/></linearGradient><linearGradient x1="2200" y1="645" x2="2200" y2="879" gradientUnits="userSpaceOnUse" spreadMethod="reflect" id="fill7"><stop offset="0" stop-color="#0070F2" stop-opacity="1"/><stop offset="0.05" stop-color="#0070F2" stop-opacity="1"/><stop offset="0.78" stop-color="#1B90FF" stop-opacity="1"/><stop offset="1" stop-color="#1B90FF" stop-opacity="1"/></linearGradient><linearGradient x1="4164" y1="827" x2="3385" y2="827" gradientUnits="userSpaceOnUse" spreadMethod="reflect" id="fill8"><stop offset="0" stop-color="#4DB1FF" stop-opacity="1"/><stop offset="0.55" stop-color="#4DB1FF" stop-opacity="1"/><stop offset="0.74" stop-color="#1B90FF" stop-opacity="1"/><stop offset="1" stop-color="#1B90FF" stop-opacity="1"/></linearGradient><linearGradient x1="3946.78" y1="829.537" x2="3536.57" y2="829.537" gradientUnits="userSpaceOnUse" spreadMethod="reflect" id="fill9"><stop offset="0" stop-color="#D1EFFF" stop-opacity="1"/><stop offset="0.33" stop-color="#D1EFFF" stop-opacity="1"/><stop offset="0.66" stop-color="#FFFFFF" stop-opacity="0.301961"/><stop offset="1" stop-color="#FFFFFF" stop-opacity="0.301961"/></linearGradient><linearGradient x1="2200" y1="669.445" x2="2200" y2="735.445" gradientUnits="userSpaceOnUse" spreadMethod="reflect" id="fill10"><stop offset="0" stop-color="#D1EFFF" stop-opacity="1"/><stop offset="1" stop-color="#D1EFFF" stop-opacity="1"/></linearGradient><linearGradient x1="1992" y1="619.5" x2="2408" y2="619.5" gradientUnits="userSpaceOnUse" spreadMethod="reflect" id="fill11"><stop offset="0" stop-color="#0070F2" stop-opacity="1"/><stop offset="0.07" stop-color="#0070F2" stop-opacity="1"/><stop offset="0.14" stop-color="#0070F2" stop-opacity="1"/><stop offset="1" stop-color="#0070F2" stop-opacity="1"/></linearGradient><linearGradient x1="3585" y1="827" x2="2806" y2="827" gradientUnits="userSpaceOnUse" spreadMethod="reflect" id="fill12"><stop offset="0" stop-color="#4DB1FF" stop-opacity="1"/><stop offset="0.55" stop-color="#4DB1FF" stop-opacity="1"/><stop offset="0.74" stop-color="#1B90FF" stop-opacity="1"/><stop offset="1" stop-color="#1B90FF" stop-opacity="1"/></linearGradient><linearGradient x1="3327.96" y1="829.537" x2="3109.68" y2="829.537" gradientUnits="userSpaceOnUse" spreadMethod="reflect" id="fill13"><stop offset="0" stop-color="#D1EFFF" stop-opacity="1"/><stop offset="0.33" stop-color="#D1EFFF" stop-opacity="1"/><stop offset="0.66" stop-color="#FFFFFF" stop-opacity="0.301961"/><stop offset="1" stop-color="#FFFFFF" stop-opacity="0.301961"/></linearGradient><linearGradient x1="236" y1="827" x2="1015" y2="827" gradientUnits="userSpaceOnUse" spreadMethod="reflect" id="fill14"><stop offset="0" stop-color="#4DB1FF" stop-opacity="1"/><stop offset="0.55" stop-color="#4DB1FF" stop-opacity="1"/><stop offset="0.74" stop-color="#1B90FF" stop-opacity="1"/><stop offset="1" stop-color="#1B90FF" stop-opacity="1"/></linearGradient><linearGradient x1="397.245" y1="829.537" x2="859.016" y2="829.537" gradientUnits="userSpaceOnUse" spreadMethod="reflect" id="fill15"><stop offset="0" stop-color="#D1EFFF" stop-opacity="1"/><stop offset="0.33" stop-color="#D1EFFF" stop-opacity="1"/><stop offset="0.66" stop-color="#FFFFFF" stop-opacity="0.301961"/><stop offset="1" stop-color="#FFFFFF" stop-opacity="0.301961"/></linearGradient><linearGradient x1="1910.48" y1="781.326" x2="1910.48" y2="858.326" gradientUnits="userSpaceOnUse" spreadMethod="reflect" id="fill16"><stop offset="0" stop-color="#FFFFFF" stop-opacity="1"/><stop offset="0.74" stop-color="#FFFFFF" stop-opacity="1"/><stop offset="1" stop-color="#FFFFFF" stop-opacity="1"/></linearGradient><clipPath id="clip17"><rect x="1.08337" y="1.0835" width="2437.83" height="748.833"/></clipPath><linearGradient x1="2173.17" y1="1825.93" x2="1980.83" y2="735.071" gradientUnits="userSpaceOnUse" spreadMethod="reflect" id="fill18"><stop offset="0" stop-color="#FFFFFF" stop-opacity="1"/><stop offset="0.0526316" stop-color="#FEFEFF" stop-opacity="1"/><stop offset="0.105263" stop-color="#FEFEFF" stop-opacity="1"/><stop offset="0.157895" stop-color="#FEFEFF" stop-opacity="1"/><stop offset="0.210526" stop-color="#FDFEFF" stop-opacity="1"/><stop offset="0.263158" stop-color="#FDFEFF" stop-opacity="1"/><stop offset="0.315789" stop-color="#FCFEFF" stop-opacity="1"/><stop offset="0.368421" stop-color="#FBFDFF" stop-opacity="1"/><stop offset="0.421053" stop-color="#FBFDFF" stop-opacity="1"/><stop offset="0.473684" stop-color="#FAFDFF" stop-opacity="1"/><stop offset="0.526316" stop-color="#F8FCFF" stop-opacity="1"/><stop offset="0.578947" stop-color="#F7FCFF" stop-opacity="1"/><stop offset="0.631579" stop-color="#F6FCFF" stop-opacity="1"/><stop offset="0.684211" stop-color="#F5FBFF" stop-opacity="1"/><stop offset="0.736842" stop-color="#F3FBFF" stop-opacity="1"/><stop offset="0.789474" stop-color="#F2FAFF" stop-opacity="1"/><stop offset="0.842105" stop-color="#F0F9FF" stop-opacity="1"/><stop offset="0.894737" stop-color="#EEF9FF" stop-opacity="1"/><stop offset="0.947368" stop-color="#ECF8FF" stop-opacity="1"/><stop offset="1" stop-color="#EBF8FF" stop-opacity="1"/></linearGradient><clipPath id="clip19"><rect x="1.0835" y="1.08337" width="874.833" height="389.833"/></clipPath><linearGradient x1="3760.41" y1="1335.7" x2="3676.59" y2="860.303" gradientUnits="userSpaceOnUse" spreadMethod="reflect" id="fill20"><stop offset="0" stop-color="#FFFFFF" stop-opacity="1"/><stop offset="0.0526316" stop-color="#FEFEFF" stop-opacity="1"/><stop offset="0.105263" stop-color="#FEFEFF" stop-opacity="1"/><stop offset="0.157895" stop-color="#FEFEFF" stop-opacity="1"/><stop offset="0.210526" stop-color="#FDFEFF" stop-opacity="1"/><stop offset="0.263158" stop-color="#FDFEFF" stop-opacity="1"/><stop offset="0.315789" stop-color="#FCFEFF" stop-opacity="1"/><stop offset="0.368421" stop-color="#FBFDFF" stop-opacity="1"/><stop offset="0.421053" stop-color="#FBFDFF" stop-opacity="1"/><stop offset="0.473684" stop-color="#FAFDFF" stop-opacity="1"/><stop offset="0.526316" stop-color="#F8FCFF" stop-opacity="1"/><stop offset="0.578947" stop-color="#F7FCFF" stop-opacity="1"/><stop offset="0.631579" stop-color="#F6FCFF" stop-opacity="1"/><stop offset="0.684211" stop-color="#F5FBFF" stop-opacity="1"/><stop offset="0.736842" stop-color="#F3FBFF" stop-opacity="1"/><stop offset="0.789474" stop-color="#F2FAFF" stop-opacity="1"/><stop offset="0.842105" stop-color="#F0F9FF" stop-opacity="1"/><stop offset="0.894737" stop-color="#EEF9FF" stop-opacity="1"/><stop offset="0.947368" stop-color="#ECF8FF" stop-opacity="1"/><stop offset="1" stop-color="#EBF8FF" stop-opacity="1"/></linearGradient><clipPath id="clip21"><rect x="1.08325" y="1.08325" width="874.834" height="382.833"/></clipPath><linearGradient x1="3764.81" y1="1696.8" x2="3682.19" y2="1228.2" gradientUnits="userSpaceOnUse" spreadMethod="reflect" id="fill22"><stop offset="0" stop-color="#FFFFFF" stop-opacity="1"/><stop offset="0.0526316" stop-color="#FEFEFF" stop-opacity="1"/><stop offset="0.105263" stop-color="#FEFEFF" stop-opacity="1"/><stop offset="0.157895" stop-color="#FEFEFF" stop-opacity="1"/><stop offset="0.210526" stop-color="#FDFEFF" stop-opacity="1"/><stop offset="0.263158" stop-color="#FDFEFF" stop-opacity="1"/><stop offset="0.315789" stop-color="#FCFEFF" stop-opacity="1"/><stop offset="0.368421" stop-color="#FBFDFF" stop-opacity="1"/><stop offset="0.421053" stop-color="#FBFDFF" stop-opacity="1"/><stop offset="0.473684" stop-color="#FAFDFF" stop-opacity="1"/><stop offset="0.526316" stop-color="#F8FCFF" stop-opacity="1"/><stop offset="0.578947" stop-color="#F7FCFF" stop-opacity="1"/><stop offset="0.631579" stop-color="#F6FCFF" stop-opacity="1"/><stop offset="0.684211" stop-color="#F5FBFF" stop-opacity="1"/><stop offset="0.736842" stop-color="#F3FBFF" stop-opacity="1"/><stop offset="0.789474" stop-color="#F2FAFF" stop-opacity="1"/><stop offset="0.842105" stop-color="#F0F9FF" stop-opacity="1"/><stop offset="0.894737" stop-color="#EEF9FF" stop-opacity="1"/><stop offset="0.947368" stop-color="#ECF8FF" stop-opacity="1"/><stop offset="1" stop-color="#EBF8FF" stop-opacity="1"/></linearGradient><clipPath id="clip23"><rect x="1.08337" y="1.0835" width="3297.83" height="348.833"/></clipPath><linearGradient x1="2581.94" y1="2242.49" x2="2432.06" y2="1392.51" gradientUnits="userSpaceOnUse" spreadMethod="reflect" id="fill24"><stop offset="0" stop-color="#FFFFFF" stop-opacity="1"/><stop offset="0.0526316" stop-color="#FEFEFF" stop-opacity="1"/><stop offset="0.105263" stop-color="#FEFEFF" stop-opacity="1"/><stop offset="0.157895" stop-color="#FEFEFF" stop-opacity="1"/><stop offset="0.210526" stop-color="#FDFEFF" stop-opacity="1"/><stop offset="0.263158" stop-color="#FDFEFF" stop-opacity="1"/><stop offset="0.315789" stop-color="#FCFEFF" stop-opacity="1"/><stop offset="0.368421" stop-color="#FBFDFF" stop-opacity="1"/><stop offset="0.421053" stop-color="#FBFDFF" stop-opacity="1"/><stop offset="0.473684" stop-color="#FAFDFF" stop-opacity="1"/><stop offset="0.526316" stop-color="#F8FCFF" stop-opacity="1"/><stop offset="0.578947" stop-color="#F7FCFF" stop-opacity="1"/><stop offset="0.631579" stop-color="#F6FCFF" stop-opacity="1"/><stop offset="0.684211" stop-color="#F5FBFF" stop-opacity="1"/><stop offset="0.736842" stop-color="#F3FBFF" stop-opacity="1"/><stop offset="0.789474" stop-color="#F2FAFF" stop-opacity="1"/><stop offset="0.842105" stop-color="#F0F9FF" stop-opacity="1"/><stop offset="0.894737" stop-color="#EEF9FF" stop-opacity="1"/><stop offset="0.947368" stop-color="#ECF8FF" stop-opacity="1"/><stop offset="1" stop-color="#EBF8FF" stop-opacity="1"/></linearGradient><clipPath id="clip25"><rect x="1705" y="949" width="108" height="109"/></clipPath><clipPath id="clip26"><rect x="1705" y="949" width="108" height="109"/></clipPath><clipPath id="clip27"><rect x="1705" y="949" width="108" height="109"/></clipPath></defs><g transform="translate(-187 -430)"><g><path d="M207 2032.27C207 2019.42 217.416 2009 230.265 2009L4169.73 2009C4182.58 2009 4193 2019.42 4193 2032.27L4193 2193.73C4193 2206.58 4182.58 2217 4169.73 2217L230.265 2217C217.416 2217 207 2206.58 207 2193.73Z" fill="url(#fill4)" fill-rule="evenodd"/><path d="M207 669.18C207 655.826 217.826 645 231.18 645L4168.82 645C4182.17 645 4193 655.826 4193 669.18L4193 1967.82C4193 1981.17 4182.17 1992 4168.82 1992L231.18 1992C217.826 1992 207 1981.17 207 1967.82Z" fill="url(#fill5)" fill-rule="evenodd"/><path d="M210.006 2275.78 4191.45 2275.78 4191.45 2279.22 210.006 2279.22ZM227.314 2294.83 207.503 2277.5 227.314 2260.16 227.314 2260.16C228.029 2259.54 229.114 2259.61 229.739 2260.33 230.365 2261.04 230.292 2262.13 229.578 2262.75L229.578 2262.75 211.244 2278.79 211.244 2276.21 229.578 2292.25C230.292 2292.87 230.365 2293.96 229.739 2294.67 229.114 2295.39 228.029 2295.46 227.314 2294.83ZM4174.15 2260.17 4193.96 2277.5 4174.15 2294.84C4173.43 2295.46 4172.35 2295.39 4171.72 2294.67 4171.1 2293.96 4171.17 2292.87 4171.88 2292.25L4190.22 2276.21 4190.22 2278.79 4171.88 2262.75C4171.17 2262.13 4171.1 2261.04 4171.72 2260.33 4172.35 2259.61 4173.43 2259.54 4174.15 2260.17Z" fill="url(#fill6)" fill-rule="nonzero"/><path d="M1855 2277C1855 2251.59 1875.59 2231 1901 2231L2499 2231C2524.41 2231 2545 2251.59 2545 2277 2545 2302.41 2524.41 2323 2499 2323L1901 2323C1875.59 2323 1855 2302.41 1855 2277Z" fill="#D1EFFF" fill-rule="evenodd" fill-opacity="1"/><text fill="#002A86" fill-opacity="1" font-family="72 Brand,72 Brand_MSFontService,sans-serif" font-style="normal" font-variant="normal" font-weight="400" font-stretch="normal" font-size="50" text-anchor="start" direction="ltr" writing-mode="lr-tb" unicode-bidi="normal" text-decoration="none" transform="matrix(1 0 0 1 1977.14 2296)">Platform Foundation  </text><path d="M236.359 645 4163.64 645C4179.86 645 4193 658.144 4193 674.359L4193 879 207 879 207 674.359C207 658.144 220.144 645 236.359 645Z" fill="url(#fill7)" fill-rule="evenodd"/><path d="M3402.33 775 4146.67 775C4156.24 775 4164 782.761 4164 792.333L4164 879 3385 879 3385 792.333C3385 782.761 3392.76 775 3402.33 775Z" fill="url(#fill8)" fill-rule="evenodd"/><path d="M3830.52 846.147C3829.37 846.956 3828.56 848.146 3828.56 849.808 3828.56 852.706 3830.49 853.851 3835.55 853.851 3840.24 853.851 3843.01 852.931 3843.01 849.808 3843.01 847.27 3840.71 846.911 3835.55 846.686 3833.75 846.597 3832 846.462 3830.52 846.147ZM3676.7 835.636C3672.89 835.636 3669.29 836.467 3669.29 840.33 3669.29 842.621 3670.91 844.103 3673.63 844.103 3678.1 844.103 3680.48 841.026 3680.48 837.994L3680.48 835.636ZM3934.25 825.753C3930.52 825.753 3927.67 828.066 3927.01 832.783L3940.9 832.783C3940.47 828.021 3938 825.753 3934.25 825.753ZM3860.34 825.753C3856.61 825.753 3853.76 828.066 3853.11 832.783L3866.99 832.783C3866.56 828.021 3864.09 825.753 3860.34 825.753ZM3775.55 825.753C3771.82 825.753 3768.97 828.066 3768.32 832.783L3782.2 832.783C3781.77 828.021 3779.3 825.753 3775.55 825.753ZM3835.32 825.461C3831.98 825.461 3829.91 827.595 3829.91 830.941 3829.91 834.535 3832.11 836.242 3835.1 836.242 3838.47 836.242 3840.58 834.063 3840.58 830.941 3840.58 827.595 3838.6 825.461 3835.32 825.461ZM3816.41 822.766 3820.45 822.766 3820.45 847.046 3816.41 847.046ZM3655.99 822.766 3660.03 822.766 3660.03 847.046 3655.99 847.046ZM3622.76 822.766 3626.81 822.766 3626.81 847.046 3622.76 847.046ZM3598.7 822.766 3602.74 822.766 3602.74 847.046 3598.7 847.046ZM3934.43 822.294C3942.29 822.294 3945.01 828.605 3945.01 834.018 3945.01 834.67 3944.98 835.321 3944.94 835.905L3926.9 835.905C3927.19 841.161 3929.87 844.058 3934.88 844.058 3937.84 844.058 3939.86 843.227 3941.64 841.161L3944.17 843.677C3941.79 846.349 3939.12 847.495 3934.88 847.495 3927.53 847.495 3922.66 843.093 3922.66 834.894 3922.66 826.427 3928.16 822.294 3934.43 822.294ZM3911.42 822.294C3915.75 822.294 3918.99 824.136 3920.9 826.921L3918.05 829.212C3916.56 827.056 3914.5 825.753 3911.51 825.753 3907.08 825.753 3903.96 828.83 3903.96 834.894 3903.96 840.981 3907.08 844.058 3911.51 844.058 3914.5 844.058 3916.56 842.756 3918.05 840.599L3920.9 842.891C3918.99 845.676 3915.75 847.495 3911.42 847.495 3904.79 847.495 3899.74 843.093 3899.74 834.894 3899.74 826.719 3904.79 822.294 3911.42 822.294ZM3887.83 822.294C3892.97 822.294 3895.42 825.753 3895.42 830.851L3895.42 847.046 3891.36 847.046 3891.36 831.638C3891.36 828.089 3890.07 825.888 3886.35 825.888 3882.53 825.888 3880.03 828.426 3880.03 832.963L3880.03 847.046 3875.99 847.046 3875.99 822.766 3879.86 822.766 3879.86 827.819 3879.95 827.819C3880.91 825.281 3882.95 822.294 3887.83 822.294ZM3860.52 822.294C3868.38 822.294 3871.1 828.605 3871.1 834.018 3871.1 834.67 3871.08 835.321 3871.03 835.905L3853 835.905C3853.29 841.161 3855.96 844.058 3860.97 844.058 3863.93 844.058 3865.96 843.227 3867.73 841.161L3870.27 843.677C3867.89 846.349 3865.21 847.495 3860.97 847.495 3853.62 847.495 3848.75 843.093 3848.75 834.894 3848.75 826.427 3854.25 822.294 3860.52 822.294ZM3775.73 822.294C3783.59 822.294 3786.31 828.605 3786.31 834.018 3786.31 834.67 3786.29 835.321 3786.24 835.905L3768.2 835.905C3768.5 841.161 3771.17 844.058 3776.18 844.058 3779.14 844.058 3781.16 843.227 3782.94 841.161L3785.48 843.677C3783.1 846.349 3780.42 847.495 3776.18 847.495 3768.83 847.495 3763.96 843.093 3763.96 834.894 3763.96 826.427 3769.46 822.294 3775.73 822.294ZM3737.15 822.294C3742.3 822.294 3744.74 825.753 3744.74 830.851L3744.74 847.046 3740.68 847.046 3740.68 831.638C3740.68 828.089 3739.4 825.888 3735.67 825.888 3731.85 825.888 3729.36 828.426 3729.36 832.963L3729.36 847.046 3725.31 847.046 3725.31 822.766 3729.18 822.766 3729.18 827.819 3729.27 827.819C3730.23 825.281 3732.28 822.294 3737.15 822.294ZM3675.83 822.294C3681.58 822.294 3684.52 825.798 3684.52 830.941L3684.52 847.046 3680.66 847.046 3680.66 842.531 3680.57 842.531C3678.95 845.99 3676.48 847.495 3672.53 847.495 3668.24 847.495 3665.11 844.979 3665.11 840.42 3665.11 834.76 3669.94 832.603 3676.16 832.603L3680.48 832.603 3680.48 830.941C3680.48 827.595 3678.91 825.708 3675.56 825.708 3672.44 825.708 3670.3 827.078 3668.69 829.257L3666.08 826.651C3667.99 824.36 3670.98 822.294 3675.83 822.294ZM3643.29 822.294C3647.63 822.294 3650.86 824.136 3652.77 826.921L3649.92 829.212C3648.44 827.056 3646.37 825.753 3643.38 825.753 3638.96 825.753 3635.84 828.83 3635.84 834.894 3635.84 840.981 3638.96 844.058 3643.38 844.058 3646.37 844.058 3648.44 842.756 3649.92 840.599L3652.77 842.891C3650.86 845.676 3647.63 847.495 3643.29 847.495 3636.67 847.495 3631.62 843.093 3631.62 834.894 3631.62 826.719 3636.67 822.294 3643.29 822.294ZM3577.99 822.294C3578.82 822.294 3579.57 822.429 3579.93 822.518L3579.93 826.494C3579.43 826.337 3578.65 826.247 3577.9 826.247 3573.77 826.247 3572.38 829.347 3572.38 834.4L3572.38 847.046 3568.34 847.046 3568.34 822.766 3572.2 822.766 3572.2 827.954 3572.29 827.954C3573.21 823.821 3575.23 822.294 3577.99 822.294ZM3846.08 819.576 3846.87 819.576 3846.87 823.641 3846.04 823.641C3843.88 823.641 3842.89 823.956 3842.11 824.517 3843.88 826.112 3844.71 828.426 3844.71 830.941 3844.71 835.501 3841.41 839.409 3835.14 839.409 3833.55 839.409 3832.13 839.162 3830.92 838.69 3830.4 839.072 3830.09 839.589 3830.09 840.33 3830.09 842.307 3832.34 842.621 3836.67 842.868 3842.04 843.138 3847.25 843.632 3847.25 849.337 3847.25 854.727 3843.09 857.063 3835.37 857.063 3827.37 857.063 3824.61 854.413 3824.61 850.954 3824.61 848.214 3826.65 846.394 3828.97 845.698 3827.35 845.092 3826.32 844.058 3826.32 842.307 3826.32 840.397 3827.55 838.892 3829.69 838.129 3827.17 836.691 3825.76 834.153 3825.76 830.941 3825.76 826.247 3828.94 822.294 3835.28 822.294 3837.57 822.294 3839.41 822.766 3840.83 823.597 3841.86 821.103 3843.25 819.576 3846.08 819.576ZM3550.88 818.61C3550.52 819.711 3549.64 822.249 3548.99 824.046L3545.24 834.76 3556.51 834.76 3552.76 824.046C3552.11 822.249 3551.23 819.711 3550.88 818.61ZM3754.57 816.881 3755.04 816.881 3755.04 822.766 3760.47 822.766 3760.47 826.157 3755.04 826.157 3755.04 840.981C3755.04 843.138 3755.73 843.744 3757.71 843.744 3758.68 843.744 3759.64 843.587 3760.47 843.362L3760.47 847.046C3759.6 847.27 3758.29 847.405 3757.1 847.405 3752.88 847.405 3750.99 845.721 3750.99 841.812L3750.99 826.157 3747.4 826.157 3747.4 824.046ZM3587.85 816.881 3588.32 816.881 3588.32 822.766 3593.75 822.766 3593.75 826.157 3588.32 826.157 3588.32 840.981C3588.32 843.138 3589.02 843.744 3590.99 843.744 3591.96 843.744 3592.92 843.587 3593.75 843.362L3593.75 847.046C3592.88 847.27 3591.58 847.405 3590.39 847.405 3586.16 847.405 3584.28 845.721 3584.28 841.812L3584.28 826.157 3580.68 826.157 3580.68 824.046ZM3713.93 815.398 3718.2 815.398 3718.2 847.046 3713.93 847.046ZM3548.47 815.398 3553.37 815.398 3565.27 847.046 3560.8 847.046 3557.82 838.488 3543.93 838.488 3540.95 847.046 3536.57 847.046ZM3803.62 813.691 3807.67 813.691 3807.67 840.891C3807.67 843.093 3808.18 843.744 3809.98 843.744 3810.81 843.744 3811.49 843.587 3812.14 843.452L3812.14 847.046C3811.35 847.27 3810.25 847.405 3809.2 847.405 3805.2 847.405 3803.62 845.429 3803.62 841.52ZM3791.02 813.691 3795.06 813.691 3795.06 840.891C3795.06 843.093 3795.58 843.744 3797.38 843.744 3798.21 843.744 3798.88 843.587 3799.53 843.452L3799.53 847.046C3798.75 847.27 3797.65 847.405 3796.59 847.405 3792.59 847.405 3791.02 845.429 3791.02 841.52ZM3690.19 813.691 3694.23 813.691 3694.23 840.891C3694.23 843.093 3694.75 843.744 3696.54 843.744 3697.37 843.744 3698.05 843.587 3698.7 843.452L3698.7 847.046C3697.91 847.27 3696.81 847.405 3695.76 847.405 3691.76 847.405 3690.19 845.429 3690.19 841.52ZM3616.38 813.242C3617.48 813.242 3618.4 813.377 3618.96 813.512L3618.96 817.195C3618.4 817.016 3617.57 816.881 3616.69 816.881 3614.02 816.881 3613.53 818.116 3613.53 820.272L3613.53 822.766 3618.96 822.766 3618.96 826.157 3613.53 826.157 3613.53 847.046 3609.48 847.046 3609.48 826.157 3606.34 826.157 3606.34 822.766 3609.48 822.766 3609.48 819.958C3609.48 816.14 3611.24 813.242 3616.38 813.242ZM3818.43 812.815C3820 812.815 3821.15 813.961 3821.15 815.533 3821.15 817.105 3820 818.251 3818.43 818.251 3816.88 818.251 3815.73 817.105 3815.73 815.533 3815.73 813.961 3816.88 812.815 3818.43 812.815ZM3658.01 812.815C3659.59 812.815 3660.73 813.961 3660.73 815.533 3660.73 817.105 3659.59 818.251 3658.01 818.251 3656.46 818.251 3655.32 817.105 3655.32 815.533 3655.32 813.961 3656.46 812.815 3658.01 812.815ZM3624.78 812.815C3626.36 812.815 3627.5 813.961 3627.5 815.533 3627.5 817.105 3626.36 818.251 3624.78 818.251 3623.23 818.251 3622.09 817.105 3622.09 815.533 3622.09 813.961 3623.23 812.815 3624.78 812.815ZM3600.72 812.815C3602.29 812.815 3603.44 813.961 3603.44 815.533 3603.44 817.105 3602.29 818.251 3600.72 818.251 3599.17 818.251 3598.03 817.105 3598.03 815.533 3598.03 813.961 3599.17 812.815 3600.72 812.815Z" fill="url(#fill9)" fill-rule="evenodd"/><text fill="#000000" fill-opacity="0" font-family="Arial,Arial_MSFontService,sans-serif" font-size="44.248" direction="ltr" writing-mode="lr-tb" x="3536.57" y="851.532">Artificial Intelligence</text><path d="M2299.08 721.377C2297.71 722.344 2296.74 723.767 2296.74 725.755 2296.74 729.219 2299.05 730.589 2305.1 730.589 2310.71 730.589 2314.01 729.488 2314.01 725.755 2314.01 722.72 2311.27 722.29 2305.1 722.022 2302.95 721.914 2300.85 721.753 2299.08 721.377ZM2422.71 708.809C2418.14 708.809 2413.84 709.803 2413.84 714.422 2413.84 717.161 2415.78 718.933 2419.03 718.933 2424.37 718.933 2427.22 715.254 2427.22 711.629L2427.22 708.809ZM1842.09 705.237 1842.09 717.779 1851.52 717.779C1856.51 717.779 1860.03 716.355 1860.03 711.387 1860.03 707.063 1856.57 705.237 1851.11 705.237ZM2486.35 696.992C2481.2 696.992 2477.17 700.672 2477.17 707.923 2477.17 715.201 2481.2 718.88 2486.35 718.88 2491.54 718.88 2495.54 715.201 2495.54 707.923 2495.54 700.672 2491.54 696.992 2486.35 696.992ZM2274.37 696.992C2269.22 696.992 2265.19 700.672 2265.19 707.923 2265.19 715.201 2269.22 718.88 2274.37 718.88 2279.56 718.88 2283.56 715.201 2283.56 707.923 2283.56 700.672 2279.56 696.992 2274.37 696.992ZM2226.82 696.992C2221.67 696.992 2217.64 700.672 2217.64 707.923 2217.64 715.201 2221.67 718.88 2226.82 718.88 2232.01 718.88 2236.01 715.201 2236.01 707.923 2236.01 700.672 2232.01 696.992 2226.82 696.992ZM2106.71 696.992C2102.25 696.992 2098.84 699.759 2098.06 705.398L2114.66 705.398C2114.15 699.705 2111.19 696.992 2106.71 696.992ZM1981.81 696.992C1977.35 696.992 1973.94 699.759 1973.16 705.398L1989.76 705.398C1989.25 699.705 1986.3 696.992 1981.81 696.992ZM2304.83 696.643C2300.83 696.643 2298.36 699.195 2298.36 703.196 2298.36 707.493 2300.99 709.534 2304.56 709.534 2308.59 709.534 2311.11 706.929 2311.11 703.196 2311.11 699.195 2308.75 696.643 2304.83 696.643ZM2318.72 693.421 2323.88 693.421 2330.05 709.48C2330.86 711.682 2332.47 716.409 2332.63 717 2332.85 716.248 2334.46 712.166 2335.21 709.964L2340.88 693.421 2346.01 693.421 2332.63 728.064C2331.05 732.173 2329.11 734.429 2323.45 734.429 2322.24 734.429 2321.14 734.322 2320.36 734.214L2320.36 730.052C2321.03 730.266 2322.02 730.374 2323.07 730.374 2326.43 730.374 2327.75 729.112 2328.74 726.48L2330.3 722.371ZM1926.73 693.421 1931.56 693.421 1931.56 722.451 1926.73 722.451ZM1870.37 693.421 1875.2 693.421 1875.2 711.844C1875.2 716.06 1876.76 718.719 1881.22 718.719 1885.78 718.719 1888.74 715.684 1888.74 710.232L1888.74 693.421 1893.57 693.421 1893.57 722.451 1888.95 722.451 1888.95 716.409 1888.85 716.409C1887.69 719.417 1885.27 722.989 1879.45 722.989 1873.3 722.989 1870.37 718.88 1870.37 712.784ZM2538.64 692.857C2542.48 692.857 2545.57 694.898 2546.56 699.463L2546.67 699.463C2547.99 694.898 2551.45 692.857 2555.45 692.857 2560.9 692.857 2563.94 695.891 2563.94 703.089L2563.94 722.451 2559.1 722.451 2559.1 704.029C2559.1 699.785 2557.76 697.154 2553.87 697.154 2549.73 697.154 2547.1 700.188 2547.1 705.613L2547.1 722.451 2542.27 722.451 2542.27 704.029C2542.27 699.785 2540.95 697.154 2537.03 697.154 2532.92 697.154 2530.26 700.188 2530.26 705.613L2530.26 722.451 2525.43 722.451 2525.43 693.421 2530.05 693.421 2530.05 699.463 2530.15 699.463C2531.55 695.22 2534.61 692.857 2538.64 692.857ZM2518.07 692.857C2519.06 692.857 2519.95 693.018 2520.38 693.125L2520.38 697.879C2519.79 697.691 2518.85 697.583 2517.96 697.583 2513.02 697.583 2511.36 701.289 2511.36 707.332L2511.36 722.451 2506.52 722.451 2506.52 693.421 2511.14 693.421 2511.14 699.624 2511.25 699.624C2512.35 694.683 2514.77 692.857 2518.07 692.857ZM2486.35 692.857C2494.84 692.857 2500.61 699.034 2500.61 707.923 2500.61 716.839 2494.84 722.989 2486.35 722.989 2477.89 722.989 2472.12 716.839 2472.12 707.923 2472.12 699.034 2477.89 692.857 2486.35 692.857ZM2421.66 692.857C2428.53 692.857 2432.05 697.046 2432.05 703.196L2432.05 722.451 2427.43 722.451 2427.43 717.054 2427.33 717.054C2425.39 721.189 2422.44 722.989 2417.71 722.989 2412.58 722.989 2408.85 719.981 2408.85 714.529 2408.85 707.762 2414.62 705.183 2422.06 705.183L2427.22 705.183 2427.22 703.196C2427.22 699.195 2425.34 696.939 2421.34 696.939 2417.6 696.939 2415.05 698.577 2413.12 701.182L2410 698.067C2412.29 695.327 2415.86 692.857 2421.66 692.857ZM2274.37 692.857C2282.86 692.857 2288.63 699.034 2288.63 707.923 2288.63 716.839 2282.86 722.989 2274.37 722.989 2265.91 722.989 2260.14 716.839 2260.14 707.923 2260.14 699.034 2265.91 692.857 2274.37 692.857ZM2226.82 692.857C2235.31 692.857 2241.08 699.034 2241.08 707.923 2241.08 716.839 2235.31 722.989 2226.82 722.989 2218.36 722.989 2212.59 716.839 2212.59 707.923 2212.59 699.034 2218.36 692.857 2226.82 692.857ZM2198.12 692.857C2204.27 692.857 2207.2 696.992 2207.2 703.089L2207.2 722.451 2202.34 722.451 2202.34 704.029C2202.34 699.785 2200.81 697.154 2196.35 697.154 2191.78 697.154 2188.8 700.188 2188.8 705.613L2188.8 722.451 2183.97 722.451 2183.97 693.421 2188.59 693.421 2188.59 699.463 2188.7 699.463C2189.85 696.429 2192.29 692.857 2198.12 692.857ZM2137.75 692.857C2142.93 692.857 2146.8 695.059 2149.08 698.389L2145.67 701.128C2143.9 698.55 2141.43 696.992 2137.86 696.992 2132.57 696.992 2128.84 700.672 2128.84 707.923 2128.84 715.201 2132.57 718.88 2137.86 718.88 2141.43 718.88 2143.9 717.322 2145.67 714.744L2149.08 717.483C2146.8 720.813 2142.93 722.989 2137.75 722.989 2129.83 722.989 2123.79 717.725 2123.79 707.923 2123.79 698.147 2129.83 692.857 2137.75 692.857ZM2106.92 692.857C2116.32 692.857 2119.57 700.403 2119.57 706.875 2119.57 707.654 2119.54 708.433 2119.49 709.131L2097.92 709.131C2098.27 715.415 2101.47 718.88 2107.46 718.88 2111 718.88 2113.42 717.886 2115.54 715.415L2118.58 718.423C2115.73 721.619 2112.53 722.989 2107.46 722.989 2098.68 722.989 2092.85 717.725 2092.85 707.923 2092.85 697.798 2099.43 692.857 2106.92 692.857ZM2035.44 692.857C2039.34 692.857 2043.15 694.146 2045.65 696.697L2042.56 699.785C2040.41 697.637 2037.89 696.939 2035.44 696.939 2032.14 696.939 2029.88 698.094 2029.88 700.725 2029.88 703.411 2032.92 704.297 2037.27 705.506 2041.38 706.66 2046.45 708.164 2046.45 714.422 2046.45 719.873 2041.94 722.989 2035.49 722.989 2031.12 722.989 2026.98 721.807 2023.89 718.423L2027.01 715.335C2029.61 718.155 2032.22 718.987 2035.49 718.987 2038.64 718.987 2041.73 717.993 2041.73 714.798 2041.73 711.441 2038.74 710.581 2034.39 709.373 2030.04 708.164 2025.21 706.499 2025.21 700.94 2025.21 695.677 2029.34 692.857 2035.44 692.857ZM2009.66 692.857C2013.55 692.857 2017.37 694.146 2019.86 696.697L2016.78 699.785C2014.63 697.637 2012.1 696.939 2009.66 696.939 2006.36 696.939 2004.1 698.094 2004.1 700.725 2004.1 703.411 2007.14 704.297 2011.49 705.506 2015.59 706.66 2020.67 708.164 2020.67 714.422 2020.67 719.873 2016.16 722.989 2009.71 722.989 2005.34 722.989 2001.2 721.807 1998.11 718.423L2001.23 715.335C2003.83 718.155 2006.44 718.987 2009.71 718.987 2012.86 718.987 2015.94 717.993 2015.94 714.798 2015.94 711.441 2012.96 710.581 2008.61 709.373 2004.26 708.164 1999.43 706.499 1999.43 700.94 1999.43 695.677 2003.56 692.857 2009.66 692.857ZM1982.03 692.857C1991.43 692.857 1994.67 700.403 1994.67 706.875 1994.67 707.654 1994.65 708.433 1994.59 709.131L1973.03 709.131C1973.38 715.415 1976.57 718.88 1982.56 718.88 1986.11 718.88 1988.52 717.886 1990.65 715.415L1993.68 718.423C1990.83 721.619 1987.64 722.989 1982.56 722.989 1973.78 722.989 1967.95 717.725 1967.95 707.923 1967.95 697.798 1974.53 692.857 1982.03 692.857ZM1953.49 692.857C1959.64 692.857 1962.56 696.992 1962.56 703.089L1962.56 722.451 1957.7 722.451 1957.7 704.029C1957.7 699.785 1956.17 697.154 1951.71 697.154 1947.15 697.154 1944.17 700.188 1944.17 705.613L1944.17 722.451 1939.33 722.451 1939.33 693.421 1943.95 693.421 1943.95 699.463 1944.06 699.463C1945.22 696.429 1947.66 692.857 1953.49 692.857ZM1909.97 692.857C1913.87 692.857 1917.68 694.146 1920.18 696.697L1917.09 699.785C1914.94 697.637 1912.42 696.939 1909.97 696.939 1906.67 696.939 1904.41 698.094 1904.41 700.725 1904.41 703.411 1907.45 704.297 1911.8 705.506 1915.91 706.66 1920.98 708.164 1920.98 714.422 1920.98 719.873 1916.47 722.989 1910.03 722.989 1905.65 722.989 1901.51 721.807 1898.42 718.423L1901.54 715.335C1904.14 718.155 1906.75 718.987 1910.03 718.987 1913.17 718.987 1916.26 717.993 1916.26 714.798 1916.26 711.441 1913.28 710.581 1908.93 709.373 1904.57 708.164 1899.74 706.499 1899.74 700.94 1899.74 695.677 1903.88 692.857 1909.97 692.857ZM2317.69 689.607 2318.63 689.607 2318.63 694.468 2317.64 694.468C2315.06 694.468 2313.88 694.844 2312.94 695.515 2315.06 697.422 2316.05 700.188 2316.05 703.196 2316.05 708.648 2312.11 713.321 2304.61 713.321 2302.71 713.321 2301.01 713.025 2299.56 712.461 2298.95 712.918 2298.57 713.535 2298.57 714.422 2298.57 716.785 2301.26 717.161 2306.44 717.456 2312.86 717.779 2319.09 718.369 2319.09 725.191 2319.09 731.636 2314.12 734.429 2304.88 734.429 2295.32 734.429 2292.02 731.26 2292.02 727.124 2292.02 723.848 2294.46 721.673 2297.23 720.84 2295.29 720.115 2294.06 718.88 2294.06 716.785 2294.06 714.502 2295.54 712.703 2298.09 711.79 2295.08 710.071 2293.39 707.036 2293.39 703.196 2293.39 697.583 2297.2 692.857 2304.77 692.857 2307.51 692.857 2309.72 693.421 2311.41 694.414 2312.64 691.433 2314.31 689.607 2317.69 689.607ZM2368.03 689.285 2368.03 703.357 2376.78 703.357C2382.66 703.357 2385.43 700.779 2385.43 696.16 2385.43 691.648 2382.4 689.285 2376.57 689.285ZM1842.09 689.285 1842.09 700.672 1850.74 700.672C1856.46 700.672 1858.55 698.362 1858.55 694.629 1858.55 690.816 1855.84 689.285 1850.9 689.285ZM2444.32 686.385 2444.89 686.385 2444.89 693.421 2451.39 693.421 2451.39 697.476 2444.89 697.476 2444.89 715.201C2444.89 717.779 2445.72 718.504 2448.08 718.504 2449.24 718.504 2450.39 718.316 2451.39 718.047L2451.39 722.451C2450.34 722.72 2448.78 722.881 2447.36 722.881 2442.31 722.881 2440.05 720.867 2440.05 716.194L2440.05 697.476 2435.76 697.476 2435.76 694.951ZM2362.93 684.612 2377.21 684.612C2386.13 684.612 2390.53 689.231 2390.53 696.106 2390.53 702.766 2386.18 707.976 2377.51 707.976L2368.03 707.976 2368.03 722.451 2362.93 722.451ZM2061.61 684.612 2090.5 684.612 2090.5 689.339 2078.61 689.339 2078.61 722.451 2073.5 722.451 2073.5 689.339 2061.61 689.339ZM1836.99 684.612 1850.9 684.612C1858.93 684.612 1863.66 687.405 1863.66 693.904 1863.66 698.147 1861.45 701.719 1857 702.766 1862.23 703.465 1865.16 707.01 1865.16 711.79 1865.16 719.471 1858.98 722.451 1851.79 722.451L1836.99 722.451ZM2395.16 682.571 2400 682.571 2400 715.093C2400 717.725 2400.61 718.504 2402.76 718.504 2403.76 718.504 2404.56 718.316 2405.34 718.155L2405.34 722.451C2404.4 722.72 2403.08 722.881 2401.82 722.881 2397.04 722.881 2395.16 720.518 2395.16 715.845ZM2246.78 682.571 2251.61 682.571 2251.61 715.093C2251.61 717.725 2252.23 718.504 2254.38 718.504 2255.37 718.504 2256.18 718.316 2256.95 718.155L2256.95 722.451C2256.01 722.72 2254.7 722.881 2253.44 722.881 2248.66 722.881 2246.78 720.518 2246.78 715.845ZM2153.61 682.571 2158.44 682.571 2158.44 699.463 2158.57 699.463C2159.67 696.106 2162.25 692.857 2167.76 692.857 2173.91 692.857 2176.84 696.992 2176.84 703.089L2176.84 722.451 2171.97 722.451 2171.97 704.029C2171.97 699.785 2170.44 697.154 2165.99 697.154 2161.42 697.154 2158.44 700.188 2158.44 705.613L2158.44 722.451 2153.61 722.451ZM2466.06 682.034C2467.38 682.034 2468.48 682.195 2469.15 682.356L2469.15 686.761C2468.48 686.546 2467.48 686.385 2466.44 686.385 2463.24 686.385 2462.65 687.862 2462.65 690.44L2462.65 693.421 2469.15 693.421 2469.15 697.476 2462.65 697.476 2462.65 722.451 2457.82 722.451 2457.82 697.476 2454.06 697.476 2454.06 693.421 2457.82 693.421 2457.82 690.064C2457.82 685.498 2459.91 682.034 2466.06 682.034ZM1929.15 681.524C1931.03 681.524 1932.4 682.893 1932.4 684.773 1932.4 686.653 1931.03 688.023 1929.15 688.023 1927.29 688.023 1925.92 686.653 1925.92 684.773 1925.92 682.893 1927.29 681.524 1929.15 681.524Z" fill="url(#fill10)" fill-rule="evenodd"/><text fill="#000000" fill-opacity="0" font-family="Arial,Arial_MSFontService,sans-serif" font-size="52.9053" direction="ltr" writing-mode="lr-tb" x="1836.99" y="727.816">Business Technology Platform</text><path d="M2377 608C2377 510.798 2297.75 432 2200 432 2102.24 432 2023 510.798 2023 608L2377 608Z" fill="#D4B6FF" fill-rule="evenodd" fill-opacity="1"/><path d="M2359 608C2359 520.185 2287.81 449 2200 449 2112.19 449 2041 520.189 2041 608L2359 608Z" fill="#E3D8FF" fill-rule="evenodd" fill-opacity="1"/><path d="M2059 608C2059 530.128 2122.13 467 2200 467 2277.87 467 2341 530.128 2341 608" fill="#89D1FF" fill-rule="evenodd" fill-opacity="1"/><path d="M2407.15 633.592 2385.45 604.125C2385.45 604.125 2384.62 602 2380.99 602L2018.25 602C2018.25 602 2015.32 602.061 2013.42 604.734 2011.51 607.407 1992.42 634.261 1992.42 634.261 1992.42 634.261 1991.48 635.41 1992.42 636.448 1992.99 637.073 1994.45 636.995 1994.45 636.995L2406.01 636.995C2406.01 636.995 2407.28 637.117 2407.85 636.144 2408.42 635.17 2407.15 633.592 2407.15 633.592Z" fill="url(#fill11)" fill-rule="evenodd"/><path d="M2077 608C2077 540.07 2132.07 485 2200 485 2267.93 485 2323 540.07 2323 608" fill="#A6E0FF" fill-rule="evenodd" fill-opacity="1"/><path d="M2159.5 609.086C2159.5 586.12 2177.85 567.5 2200.5 567.5 2223.15 567.5 2241.5 586.117 2241.5 609.086L2241.5 613.5 2159.5 613.5 2159.5 609.086Z" stroke="#89D1FF" stroke-width="2.6291" stroke-linecap="butt" stroke-linejoin="miter" stroke-miterlimit="8" stroke-opacity="1" fill="#89D1FF" fill-rule="evenodd" fill-opacity="1"/><path d="M2823.33 775 3567.67 775C3577.24 775 3585 782.761 3585 792.333L3585 879 2806 879 2806 792.333C2806 782.761 2813.76 775 2823.33 775Z" fill="url(#fill12)" fill-rule="evenodd"/><path d="M3194.51 846.147C3193.37 846.956 3192.56 848.146 3192.56 849.808 3192.56 852.706 3194.49 853.851 3199.55 853.851 3204.24 853.851 3207 852.93 3207 849.808 3207 847.27 3204.71 846.911 3199.55 846.686 3197.75 846.596 3196 846.461 3194.51 846.147ZM3240.08 835.635C3236.26 835.635 3232.66 836.466 3232.66 840.33 3232.66 842.621 3234.28 844.103 3237 844.103 3241.47 844.103 3243.85 841.026 3243.85 837.994L3243.85 835.635ZM3289.39 825.752C3285.08 825.752 3281.71 828.83 3281.71 834.894 3281.71 840.981 3285.08 844.058 3289.39 844.058 3293.73 844.058 3297.07 840.981 3297.07 834.894 3297.07 828.83 3293.73 825.752 3289.39 825.752ZM3175.07 825.752C3171.34 825.752 3168.49 828.066 3167.83 832.783L3181.72 832.783C3181.29 828.021 3178.82 825.752 3175.07 825.752ZM3199.32 825.46C3195.97 825.46 3193.91 827.594 3193.91 830.941 3193.91 834.535 3196.11 836.242 3199.1 836.242 3202.47 836.242 3204.58 834.063 3204.58 830.941 3204.58 827.594 3202.6 825.46 3199.32 825.46ZM3268.63 822.765 3272.68 822.765 3272.68 847.045 3268.63 847.045ZM3317.71 822.293C3322.85 822.293 3325.3 825.752 3325.3 830.851L3325.3 847.045 3321.24 847.045 3321.24 831.637C3321.24 828.088 3319.96 825.887 3316.23 825.887 3312.41 825.887 3309.92 828.425 3309.92 832.962L3309.92 847.045 3305.87 847.045 3305.87 822.765 3309.74 822.765 3309.74 827.819 3309.83 827.819C3310.79 825.281 3312.84 822.293 3317.71 822.293ZM3289.39 822.293C3296.49 822.293 3301.32 827.459 3301.32 834.894 3301.32 842.351 3296.49 847.495 3289.39 847.495 3282.32 847.495 3277.49 842.351 3277.49 834.894 3277.49 827.459 3282.32 822.293 3289.39 822.293ZM3239.2 822.293C3244.95 822.293 3247.89 825.797 3247.89 830.941L3247.89 847.045 3244.03 847.045 3244.03 842.531 3243.94 842.531C3242.32 845.99 3239.85 847.495 3235.9 847.495 3231.61 847.495 3228.49 844.979 3228.49 840.419 3228.49 834.759 3233.31 832.603 3239.54 832.603L3243.85 832.603 3243.85 830.941C3243.85 827.594 3242.28 825.708 3238.93 825.708 3235.81 825.708 3233.67 827.078 3232.06 829.256L3229.45 826.651C3231.36 824.36 3234.35 822.293 3239.2 822.293ZM3223.87 822.293C3224.7 822.293 3225.44 822.428 3225.8 822.518L3225.8 826.494C3225.3 826.336 3224.52 826.247 3223.78 826.247 3219.64 826.247 3218.25 829.346 3218.25 834.4L3218.25 847.045 3214.21 847.045 3214.21 822.765 3218.07 822.765 3218.07 827.954 3218.16 827.954C3219.08 823.821 3221.1 822.293 3223.87 822.293ZM3175.25 822.293C3183.11 822.293 3185.83 828.605 3185.83 834.018 3185.83 834.669 3185.8 835.321 3185.76 835.905L3167.72 835.905C3168.01 841.161 3170.69 844.058 3175.7 844.058 3178.66 844.058 3180.68 843.227 3182.46 841.161L3184.99 843.676C3182.61 846.349 3179.94 847.495 3175.7 847.495 3168.35 847.495 3163.48 843.092 3163.48 834.894 3163.48 826.426 3168.98 822.293 3175.25 822.293ZM3136.67 822.293C3141.81 822.293 3144.26 825.752 3144.26 830.851L3144.26 847.045 3140.2 847.045 3140.2 831.637C3140.2 828.088 3138.92 825.887 3135.19 825.887 3131.37 825.887 3128.88 828.425 3128.88 832.962L3128.88 847.045 3124.83 847.045 3124.83 822.765 3128.7 822.765 3128.7 827.819 3128.79 827.819C3129.75 825.281 3131.8 822.293 3136.67 822.293ZM3210.08 819.576 3210.87 819.576 3210.87 823.641 3210.03 823.641C3207.88 823.641 3206.89 823.956 3206.1 824.517 3207.88 826.112 3208.71 828.425 3208.71 830.941 3208.71 835.5 3205.41 839.409 3199.14 839.409 3197.55 839.409 3196.13 839.162 3194.92 838.69 3194.4 839.072 3194.09 839.588 3194.09 840.33 3194.09 842.306 3196.33 842.621 3200.67 842.868 3206.04 843.137 3211.25 843.631 3211.25 849.336 3211.25 854.727 3207.09 857.063 3199.37 857.063 3191.37 857.063 3188.61 854.413 3188.61 850.954 3188.61 848.213 3190.65 846.394 3192.96 845.698 3191.35 845.091 3190.31 844.058 3190.31 842.306 3190.31 840.397 3191.55 838.892 3193.68 838.128 3191.17 836.691 3189.75 834.153 3189.75 830.941 3189.75 826.247 3192.94 822.293 3199.28 822.293 3201.57 822.293 3203.41 822.765 3204.82 823.596 3205.86 821.103 3207.25 819.576 3210.08 819.576ZM3257.78 816.88 3258.25 816.88 3258.25 822.765 3263.69 822.765 3263.69 826.157 3258.25 826.157 3258.25 840.981C3258.25 843.137 3258.95 843.744 3260.93 843.744 3261.89 843.744 3262.86 843.586 3263.69 843.362L3263.69 847.045C3262.81 847.27 3261.51 847.405 3260.32 847.405 3256.1 847.405 3254.21 845.72 3254.21 841.812L3254.21 826.157 3250.62 826.157 3250.62 824.045ZM3154.08 816.88 3154.56 816.88 3154.56 822.765 3159.99 822.765 3159.99 826.157 3154.56 826.157 3154.56 840.981C3154.56 843.137 3155.25 843.744 3157.23 843.744 3158.19 843.744 3159.16 843.586 3159.99 843.362L3159.99 847.045C3159.12 847.27 3157.81 847.405 3156.62 847.405 3152.4 847.405 3150.51 845.72 3150.51 841.812L3150.51 826.157 3146.92 826.157 3146.92 824.045ZM3113.45 815.398 3117.72 815.398 3117.72 847.045 3113.45 847.045ZM3270.66 812.815C3272.23 812.815 3273.37 813.96 3273.37 815.533 3273.37 817.105 3272.23 818.25 3270.66 818.25 3269.11 818.25 3267.96 817.105 3267.96 815.533 3267.96 813.96 3269.11 812.815 3270.66 812.815Z" fill="url(#fill13)" fill-rule="evenodd"/><text fill="#000000" fill-opacity="0" font-family="Arial,Arial_MSFontService,sans-serif" font-size="44.248" direction="ltr" writing-mode="lr-tb" x="3113.45" y="851.532">Integration</text><path d="M253.333 775 997.667 775C1007.24 775 1015 782.761 1015 792.333L1015 879 236 879 236 792.333C236 782.761 243.761 775 253.333 775Z" fill="url(#fill14)" fill-rule="evenodd"/><path d="M771.131 835.636C767.312 835.636 763.719 836.467 763.719 840.33 763.719 842.621 765.336 844.103 768.054 844.103 772.523 844.103 774.904 841.026 774.904 837.994L774.904 835.636ZM593.831 832.289C590.888 833.884 588.485 835.703 588.485 838.848 588.485 841.745 590.551 844.148 594.504 844.148 596.661 844.148 599.558 843.43 602.164 840.644L596.481 834.939C595.538 833.974 594.639 833.098 593.831 832.289ZM820.446 825.753C816.134 825.753 812.765 828.83 812.765 834.894 812.765 840.981 816.134 844.058 820.446 844.058 824.781 844.058 828.128 840.981 828.128 834.894 828.128 828.83 824.781 825.753 820.446 825.753ZM705.863 825.753C701.551 825.753 698.182 828.83 698.182 834.894 698.182 840.981 701.551 844.058 705.863 844.058 710.198 844.058 713.545 840.981 713.545 834.894 713.545 828.83 710.198 825.753 705.863 825.753ZM537.684 825.753C533.956 825.753 531.103 828.066 530.452 832.783L544.333 832.783C543.906 828.021 541.435 825.753 537.684 825.753ZM468.833 825.753C464.498 825.753 461.128 828.83 461.128 834.894 461.128 840.981 464.498 844.058 468.833 844.058 473.145 844.058 476.514 840.981 476.514 834.894 476.514 828.83 473.145 825.753 468.833 825.753ZM440.76 825.753C436.425 825.753 433.056 828.83 433.056 834.894 433.056 840.981 436.425 844.058 440.76 844.058 445.072 844.058 448.441 840.981 448.441 834.894 448.441 828.83 445.072 825.753 440.76 825.753ZM799.69 822.766 803.733 822.766 803.733 847.046 799.69 847.046ZM655.135 822.766 659.178 822.766 659.178 838.174C659.178 841.7 660.481 843.924 664.209 843.924 668.028 843.924 670.498 841.386 670.498 836.826L670.498 822.766 674.541 822.766 674.541 847.046 670.678 847.046 670.678 841.992 670.588 841.992C669.622 844.508 667.601 847.495 662.727 847.495 657.583 847.495 655.135 844.058 655.135 838.96ZM550.213 822.766 554.548 822.766 559.737 838.533C560.186 839.881 560.927 842.217 561.309 843.497 561.669 842.217 562.5 839.881 562.949 838.533L568.339 822.766 572.652 822.766 563.78 847.046 558.816 847.046ZM848.766 822.294C853.91 822.294 856.358 825.753 856.358 830.851L856.358 847.046 852.292 847.046 852.292 831.638C852.292 828.089 851.012 825.888 847.284 825.888 843.465 825.888 840.972 828.426 840.972 832.963L840.972 847.046 836.929 847.046 836.929 822.766 840.793 822.766 840.793 827.819 840.882 827.819C841.848 825.281 843.892 822.294 848.766 822.294ZM820.446 822.294C827.544 822.294 832.373 827.46 832.373 834.894 832.373 842.351 827.544 847.495 820.446 847.495 813.371 847.495 808.542 842.351 808.542 834.894 808.542 827.46 813.371 822.294 820.446 822.294ZM770.255 822.294C776.005 822.294 778.947 825.798 778.947 830.941L778.947 847.046 775.084 847.046 775.084 842.531 774.994 842.531C773.377 845.99 770.906 847.495 766.953 847.495 762.663 847.495 759.541 844.979 759.541 840.42 759.541 834.76 764.37 832.603 770.592 832.603L774.904 832.603 774.904 830.941C774.904 827.595 773.332 825.708 769.985 825.708 766.863 825.708 764.729 827.078 763.112 829.257L760.507 826.651C762.416 824.36 765.403 822.294 770.255 822.294ZM733.397 822.294C736.609 822.294 739.192 824.001 740.023 827.819L740.113 827.819C741.213 824.001 744.111 822.294 747.457 822.294 752.017 822.294 754.555 824.832 754.555 830.851L754.555 847.046 750.512 847.046 750.512 831.638C750.512 828.089 749.389 825.888 746.132 825.888 742.673 825.888 740.472 828.426 740.472 832.963L740.472 847.046 736.429 847.046 736.429 831.638C736.429 828.089 735.328 825.888 732.049 825.888 728.613 825.888 726.389 828.426 726.389 832.963L726.389 847.046 722.346 847.046 722.346 822.766 726.209 822.766 726.209 827.819 726.299 827.819C727.467 824.27 730.028 822.294 733.397 822.294ZM705.863 822.294C712.961 822.294 717.79 827.46 717.79 834.894 717.79 842.351 712.961 847.495 705.863 847.495 698.788 847.495 693.959 842.351 693.959 834.894 693.959 827.46 698.788 822.294 705.863 822.294ZM537.864 822.294C545.725 822.294 548.443 828.605 548.443 834.018 548.443 834.67 548.42 835.321 548.376 835.905L530.339 835.905C530.631 841.161 533.304 844.058 538.313 844.058 541.278 844.058 543.299 843.227 545.074 841.161L547.612 843.677C545.231 846.349 542.558 847.495 538.313 847.495 530.968 847.495 526.094 843.093 526.094 834.894 526.094 826.427 531.597 822.294 537.864 822.294ZM470.068 822.294C476.514 822.294 480.737 827.46 480.737 834.894 480.737 842.351 476.649 847.495 470.203 847.495 465.329 847.495 462.476 845.024 461.241 842.172L461.128 842.172 461.128 856.614 457.086 856.614 457.086 822.766 460.949 822.766 460.949 827.909 460.994 827.909C462.162 825.057 464.543 822.294 470.068 822.294ZM441.995 822.294C448.441 822.294 452.664 827.46 452.664 834.894 452.664 842.351 448.576 847.495 442.13 847.495 437.256 847.495 434.403 845.024 433.168 842.172L433.056 842.172 433.056 856.614 429.013 856.614 429.013 822.766 432.876 822.766 432.876 827.909 432.921 827.909C434.089 825.057 436.47 822.294 441.995 822.294ZM500.39 819.307 500.39 843.138 507.061 843.138C513.417 843.138 518.156 839.679 518.156 831.211 518.156 822.766 513.417 819.307 507.061 819.307ZM637.854 818.61C637.495 819.711 636.619 822.249 635.968 824.046L632.217 834.76 643.492 834.76 639.741 824.046C639.09 822.249 638.214 819.711 637.854 818.61ZM411.552 818.61C411.193 819.711 410.317 822.249 409.666 824.046L405.915 834.76 417.19 834.76 413.439 824.046C412.788 822.249 411.912 819.711 411.552 818.61ZM595.987 818.161C593.044 818.161 591.382 820.093 591.382 822.384 591.382 824.495 592.82 826.359 594.954 828.56 598.053 826.966 600.636 825.304 600.636 822.384 600.636 819.958 598.839 818.161 595.987 818.161ZM788.837 816.881 789.308 816.881 789.308 822.766 794.744 822.766 794.744 826.157 789.308 826.157 789.308 840.981C789.308 843.138 790.005 843.744 791.981 843.744 792.947 843.744 793.913 843.587 794.744 843.362L794.744 847.046C793.868 847.27 792.565 847.405 791.375 847.405 787.152 847.405 785.266 845.721 785.266 841.812L785.266 826.157 781.672 826.157 781.672 824.046ZM684.566 816.881 685.038 816.881 685.038 822.766 690.473 822.766 690.473 826.157 685.038 826.157 685.038 840.981C685.038 843.138 685.734 843.744 687.711 843.744 688.676 843.744 689.642 843.587 690.473 843.362L690.473 847.046C689.597 847.27 688.294 847.405 687.104 847.405 682.881 847.405 680.995 845.721 680.995 841.812L680.995 826.157 677.401 826.157 677.401 824.046ZM635.451 815.398 640.348 815.398 652.252 847.046 647.782 847.046 644.795 838.488 630.914 838.488 627.927 847.046 623.547 847.046ZM496.122 815.398 507.263 815.398C516.09 815.398 522.514 820.924 522.514 831.211 522.514 841.52 516.09 847.046 507.263 847.046L496.122 847.046ZM409.149 815.398 414.045 815.398 425.95 847.046 421.48 847.046 418.493 838.488 404.612 838.488 401.625 847.046 397.245 847.046ZM595.942 815.219C600.726 815.219 604.163 817.891 604.163 822.204 604.163 826.539 600.704 828.718 597.043 830.604 597.784 831.346 598.57 832.087 599.378 832.918L604.208 837.837C605.331 835.928 606.341 833.457 607.105 830.312L610.519 831.076C609.643 834.535 608.363 837.724 606.678 840.33L613.102 846.866 613.102 847.046 608.543 847.046 604.567 843.048C601.939 845.81 598.57 847.495 594.28 847.495 587.789 847.495 584.711 843.632 584.711 839.184 584.711 834.513 588.126 832.109 591.787 830.178 589.271 827.46 587.834 825.281 587.834 822.474 587.834 818.812 590.372 815.219 595.942 815.219ZM801.711 812.815C803.283 812.815 804.429 813.961 804.429 815.533 804.429 817.105 803.283 818.251 801.711 818.251 800.161 818.251 799.016 817.105 799.016 815.533 799.016 813.961 800.161 812.815 801.711 812.815Z" fill="url(#fill15)" fill-rule="evenodd"/><text fill="#000000" fill-opacity="0" font-family="Arial,Arial_MSFontService,sans-serif" font-size="43.7988" direction="ltr" writing-mode="lr-tb" x="397.245" y="851.139">App Dev &amp; Automation  </text><path d="M817.5 756 3003.5 756C3014.82 756 3024 765.178 3024 776.5L3024 879 797 879 797 776.5C797 765.178 806.178 756 817.5 756Z" fill="#4DB1FF" fill-rule="evenodd" fill-opacity="1"/><path d="M2012.94 827.44C2007.62 827.44 2002.62 828.597 2002.62 833.972 2002.62 837.159 2004.87 839.222 2008.65 839.222 2014.87 839.222 2018.19 834.94 2018.19 830.722L2018.19 827.44ZM1813.56 827.44C1808.25 827.44 1803.25 828.597 1803.25 833.972 1803.25 837.159 1805.5 839.222 1809.28 839.222 1815.5 839.222 1818.81 834.94 1818.81 830.722L1818.81 827.44ZM1764.86 827.44C1759.55 827.44 1754.55 828.597 1754.55 833.972 1754.55 837.159 1756.8 839.222 1760.58 839.222 1766.8 839.222 1770.11 834.94 1770.11 830.722L1770.11 827.44ZM1710.44 827.44C1705.12 827.44 1700.12 828.597 1700.12 833.972 1700.12 837.159 1702.37 839.222 1706.15 839.222 1712.37 839.222 1715.69 834.94 1715.69 830.722L1715.69 827.44ZM1882.95 813.69C1876.95 813.69 1872.26 817.972 1872.26 826.409 1872.26 834.878 1876.95 839.159 1882.95 839.159 1888.98 839.159 1893.63 834.878 1893.63 826.409 1893.63 817.972 1888.98 813.69 1882.95 813.69ZM2101.59 809.534 2107.22 809.534 2107.22 843.315 2101.59 843.315ZM2044.92 809.534 2050.92 809.534 2058.11 828.222C2059.05 830.784 2060.92 836.284 2061.11 836.972 2061.36 836.097 2063.24 831.347 2064.11 828.784L2070.71 809.534 2076.67 809.534 2061.11 849.847C2059.27 854.628 2057.02 857.253 2050.42 857.253 2049.02 857.253 2047.74 857.128 2046.83 857.003L2046.83 852.159C2047.61 852.409 2048.77 852.534 2049.99 852.534 2053.89 852.534 2055.42 851.065 2056.58 848.003L2058.39 843.222ZM2159.07 808.878C2163.6 808.878 2168.04 810.378 2170.95 813.347L2167.35 816.94C2164.85 814.44 2161.91 813.628 2159.07 813.628 2155.23 813.628 2152.6 814.972 2152.6 818.034 2152.6 821.159 2156.13 822.19 2161.2 823.597 2165.98 824.94 2171.88 826.69 2171.88 833.972 2171.88 840.315 2166.63 843.94 2159.13 843.94 2154.04 843.94 2149.23 842.565 2145.63 838.628L2149.26 835.034C2152.29 838.315 2155.32 839.284 2159.13 839.284 2162.79 839.284 2166.38 838.128 2166.38 834.409 2166.38 830.503 2162.91 829.503 2157.85 828.097 2152.79 826.69 2147.16 824.753 2147.16 818.284 2147.16 812.159 2151.98 808.878 2159.07 808.878ZM2130.13 808.878C2136.16 808.878 2140.66 811.44 2143.32 815.315L2139.35 818.503C2137.29 815.503 2134.41 813.69 2130.26 813.69 2124.1 813.69 2119.76 817.972 2119.76 826.409 2119.76 834.878 2124.1 839.159 2130.26 839.159 2134.41 839.159 2137.29 837.347 2139.35 834.347L2143.32 837.534C2140.66 841.409 2136.16 843.94 2130.13 843.94 2120.91 843.94 2113.88 837.815 2113.88 826.409 2113.88 815.034 2120.91 808.878 2130.13 808.878ZM2011.72 808.878C2019.72 808.878 2023.81 813.753 2023.81 820.909L2023.81 843.315 2018.44 843.315 2018.44 837.034 2018.31 837.034C2016.06 841.847 2012.62 843.94 2007.12 843.94 2001.15 843.94 1996.81 840.44 1996.81 834.097 1996.81 826.222 2003.53 823.222 2012.19 823.222L2018.19 823.222 2018.19 820.909C2018.19 816.253 2016 813.628 2011.34 813.628 2007 813.628 2004.03 815.534 2001.78 818.565L1998.15 814.94C2000.81 811.753 2004.97 808.878 2011.72 808.878ZM1979.41 808.878C1986.57 808.878 1989.98 813.69 1989.98 820.784L1989.98 843.315 1984.32 843.315 1984.32 821.878C1984.32 816.94 1982.54 813.878 1977.35 813.878 1972.04 813.878 1968.57 817.409 1968.57 823.722L1968.57 843.315 1962.95 843.315 1962.95 809.534 1968.32 809.534 1968.32 816.565 1968.45 816.565C1969.79 813.034 1972.63 808.878 1979.41 808.878ZM1849.36 808.878C1856.52 808.878 1859.92 813.69 1859.92 820.784L1859.92 843.315 1854.27 843.315 1854.27 821.878C1854.27 816.94 1852.49 813.878 1847.3 813.878 1841.99 813.878 1838.52 817.409 1838.52 823.722L1838.52 843.315 1832.89 843.315 1832.89 809.534 1838.27 809.534 1838.27 816.565 1838.39 816.565C1839.74 813.034 1842.58 808.878 1849.36 808.878ZM1812.34 808.878C1820.34 808.878 1824.44 813.753 1824.44 820.909L1824.44 843.315 1819.06 843.315 1819.06 837.034 1818.94 837.034C1816.69 841.847 1813.25 843.94 1807.75 843.94 1801.78 843.94 1797.44 840.44 1797.44 834.097 1797.44 826.222 1804.15 823.222 1812.81 823.222L1818.81 823.222 1818.81 820.909C1818.81 816.253 1816.62 813.628 1811.97 813.628 1807.62 813.628 1804.65 815.534 1802.4 818.565L1798.78 814.94C1801.44 811.753 1805.59 808.878 1812.34 808.878ZM1763.64 808.878C1771.64 808.878 1775.74 813.753 1775.74 820.909L1775.74 843.315 1770.36 843.315 1770.36 837.034 1770.24 837.034C1767.99 841.847 1764.55 843.94 1759.05 843.94 1753.08 843.94 1748.74 840.44 1748.74 834.097 1748.74 826.222 1755.46 823.222 1764.11 823.222L1770.11 823.222 1770.11 820.909C1770.11 816.253 1767.92 813.628 1763.27 813.628 1758.92 813.628 1755.96 815.534 1753.71 818.565L1750.08 814.94C1752.74 811.753 1756.89 808.878 1763.64 808.878ZM1709.22 808.878C1717.22 808.878 1721.31 813.753 1721.31 820.909L1721.31 843.315 1715.94 843.315 1715.94 837.034 1715.81 837.034C1713.56 841.847 1710.12 843.94 1704.62 843.94 1698.65 843.94 1694.31 840.44 1694.31 834.097 1694.31 826.222 1701.03 823.222 1709.69 823.222L1715.69 823.222 1715.69 820.909C1715.69 816.253 1713.5 813.628 1708.84 813.628 1704.5 813.628 1701.53 815.534 1699.28 818.565L1695.65 814.94C1698.31 811.753 1702.47 808.878 1709.22 808.878ZM1658.12 804.722 1658.12 837.878 1667.4 837.878C1676.25 837.878 1682.84 833.065 1682.84 821.284 1682.84 809.534 1676.25 804.722 1667.4 804.722ZM1938.4 803.753C1937.9 805.284 1936.69 808.815 1935.78 811.315L1930.56 826.222 1946.25 826.222 1941.03 811.315C1940.12 808.815 1938.9 805.284 1938.4 803.753ZM2086.59 801.347 2087.25 801.347 2087.25 809.534 2094.81 809.534 2094.81 814.253 2087.25 814.253 2087.25 834.878C2087.25 837.878 2088.22 838.722 2090.97 838.722 2092.31 838.722 2093.65 838.503 2094.81 838.19L2094.81 843.315C2093.59 843.628 2091.78 843.815 2090.12 843.815 2084.25 843.815 2081.62 841.472 2081.62 836.034L2081.62 814.253 2076.62 814.253 2076.62 811.315ZM1735.39 801.347 1736.05 801.347 1736.05 809.534 1743.61 809.534 1743.61 814.253 1736.05 814.253 1736.05 834.878C1736.05 837.878 1737.02 838.722 1739.77 838.722 1741.11 838.722 1742.46 838.503 1743.61 838.19L1743.61 843.315C1742.39 843.628 1740.58 843.815 1738.92 843.815 1733.05 843.815 1730.42 841.472 1730.42 836.034L1730.42 814.253 1725.42 814.253 1725.42 811.315ZM1935.06 799.284 1941.87 799.284 1958.44 843.315 1952.22 843.315 1948.06 831.409 1928.75 831.409 1924.59 843.315 1918.5 843.315ZM1652.19 799.284 1667.69 799.284C1679.97 799.284 1688.9 806.972 1688.9 821.284 1688.9 835.628 1679.97 843.315 1667.69 843.315L1652.19 843.315ZM2032.02 796.909 2037.64 796.909 2037.64 834.753C2037.64 837.815 2038.36 838.722 2040.86 838.722 2042.02 838.722 2042.96 838.503 2043.86 838.315L2043.86 843.315C2042.77 843.628 2041.24 843.815 2039.77 843.815 2034.21 843.815 2032.02 841.065 2032.02 835.628ZM1893.63 796.909 1899.26 796.909 1899.26 843.315 1893.88 843.315 1893.88 836.159 1893.82 836.159C1892.23 840.128 1888.91 843.94 1881.23 843.94 1872.26 843.94 1866.38 836.784 1866.38 826.409 1866.38 816.065 1872.07 808.878 1881.04 808.878 1887.82 808.878 1891.79 812.347 1893.51 816.315L1893.63 816.315ZM2104.4 795.69C2106.59 795.69 2108.19 797.284 2108.19 799.472 2108.19 801.659 2106.59 803.253 2104.4 803.253 2102.25 803.253 2100.65 801.659 2100.65 799.472 2100.65 797.284 2102.25 795.69 2104.4 795.69Z" fill="url(#fill16)" fill-rule="evenodd"/><text fill="#000000" fill-opacity="0" font-family="Arial,Arial_MSFontService,sans-serif" font-size="61.5625" direction="ltr" writing-mode="lr-tb" x="1652.19" y="849.558">Data and Analytics</text><text fill="#002A86" fill-opacity="1" font-family="72 Brand,72 Brand_MSFontService,sans-serif" font-style="normal" font-variant="normal" font-weight="400" font-stretch="normal" font-size="55" text-anchor="start" direction="ltr" writing-mode="lr-tb" unicode-bidi="normal" text-decoration="none" transform="matrix(1 0 0 1 314.621 2100)">Hybrid integration </text><text fill="#002A86" fill-opacity="1" font-family="72 Brand,72 Brand_MSFontService,sans-serif" font-style="normal" font-variant="normal" font-weight="400" font-stretch="normal" font-size="55" text-anchor="start" direction="ltr" writing-mode="lr-tb" unicode-bidi="normal" text-decoration="none" transform="matrix(1 0 0 1 314.621 2166)">to on</text><text fill="#002A86" fill-opacity="1" font-family="72 Brand,72 Brand_MSFontService,sans-serif" font-style="normal" font-variant="normal" font-weight="400" font-stretch="normal" font-size="55" text-anchor="start" direction="ltr" writing-mode="lr-tb" unicode-bidi="normal" text-decoration="none" transform="matrix(1 0 0 1 440.662 2166)">-</text><text fill="#002A86" fill-opacity="1" font-family="72 Brand,72 Brand_MSFontService,sans-serif" font-style="normal" font-variant="normal" font-weight="400" font-stretch="normal" font-size="55" text-anchor="start" direction="ltr" writing-mode="lr-tb" unicode-bidi="normal" text-decoration="none" transform="matrix(1 0 0 1 457.85 2166)">premise</text><text fill="#000000" fill-opacity="1" font-family="Arial,Arial_MSFontService,sans-serif" font-style="normal" font-variant="normal" font-weight="400" font-stretch="normal" font-size="41" text-anchor="start" direction="ltr" writing-mode="lr-tb" unicode-bidi="normal" text-decoration="none" transform="matrix(1 0 0 1 1160.49 2088)">•</text><text fill="#000000" fill-opacity="1" font-family="72 Brand,72 Brand_MSFontService,sans-serif" font-style="normal" font-variant="normal" font-weight="400" font-stretch="normal" font-size="41" text-anchor="start" direction="ltr" writing-mode="lr-tb" unicode-bidi="normal" text-decoration="none" transform="matrix(1 0 0 1 1194.18 2088)">Reuse assets and skills in the SAP Business Warehouse </text><text fill="#000000" fill-opacity="1" font-family="72 Brand,72 Brand_MSFontService,sans-serif" font-style="normal" font-variant="normal" font-weight="400" font-stretch="normal" font-size="41" text-anchor="start" direction="ltr" writing-mode="lr-tb" unicode-bidi="normal" text-decoration="none" transform="matrix(1 0 0 1 1194.18 2138)">application with the SAP BW Bridge for SAP Datasphere </text><text fill="#002A86" fill-opacity="1" font-family="72 Brand,72 Brand_MSFontService,sans-serif" font-style="normal" font-variant="normal" font-weight="400" font-stretch="normal" font-size="55" text-anchor="start" direction="ltr" writing-mode="lr-tb" unicode-bidi="normal" text-decoration="none" transform="matrix(1 0 0 1 314.62 1346)">Business data fabric</text><text fill="#002A86" fill-opacity="1" font-family="72 Brand,72 Brand_MSFontService,sans-serif" font-style="normal" font-variant="normal" font-weight="400" font-stretch="normal" font-size="55" text-anchor="start" direction="ltr" writing-mode="lr-tb" unicode-bidi="normal" text-decoration="none" transform="matrix(1 0 0 1 314.746 1192)">Analytics and </text><text fill="#002A86" fill-opacity="1" font-family="72 Brand,72 Brand_MSFontService,sans-serif" font-style="normal" font-variant="normal" font-weight="400" font-stretch="normal" font-size="55" text-anchor="start" direction="ltr" writing-mode="lr-tb" unicode-bidi="normal" text-decoration="none" transform="matrix(1 0 0 1 314.746 1258)">planning</text><text fill="#002A86" fill-opacity="1" font-family="72 Brand,72 Brand_MSFontService,sans-serif" font-style="normal" font-variant="normal" font-weight="400" font-stretch="normal" font-size="55" text-anchor="start" direction="ltr" writing-mode="lr-tb" unicode-bidi="normal" text-decoration="none" transform="matrix(1 0 0 1 314.621 1804)">Database and </text><text fill="#002A86" fill-opacity="1" font-family="72 Brand,72 Brand_MSFontService,sans-serif" font-style="normal" font-variant="normal" font-weight="400" font-stretch="normal" font-size="55" text-anchor="start" direction="ltr" writing-mode="lr-tb" unicode-bidi="normal" text-decoration="none" transform="matrix(1 0 0 1 314.621 1870)">Datalake</text><g clip-path="url(#clip17)" filter="url(#fx0)" transform="translate(857 905)"><g><g><path d="M24.0001 59.7129C24.0001 39.9893 39.9891 24.0002 59.7126 24.0002L2380.29 24.0002C2400.01 24.0002 2416 39.9893 2416 59.7129L2416 691.287C2416 711.011 2400.01 727 2380.29 727L59.7126 727C39.9891 727 24.0001 711.011 24.0001 691.287Z" fill="#FF0000" fill-rule="evenodd" fill-opacity="1"/></g></g></g><path d="M881 964.713C881 944.989 896.989 929 916.713 929L3237.29 929C3257.01 929 3273 944.989 3273 964.713L3273 1596.29C3273 1616.01 3257.01 1632 3237.29 1632L916.713 1632C896.989 1632 881 1616.01 881 1596.29Z" fill="url(#fill18)" fill-rule="evenodd"/><text fill="#000000" fill-opacity="1" font-family="72 Brand,72 Brand_MSFontService,sans-serif" font-style="normal" font-variant="normal" font-weight="700" font-stretch="normal" font-size="41" text-anchor="start" direction="ltr" writing-mode="lr-tb" unicode-bidi="normal" text-decoration="none" transform="matrix(1 0 0 1 1841.82 1005)">SAP Business Data Cloud</text><text fill="#000000" fill-opacity="1" font-family="72 Brand,72 Brand_MSFontService,sans-serif" font-style="normal" font-variant="normal" font-weight="400" font-stretch="normal" font-size="41" text-anchor="start" direction="ltr" writing-mode="lr-tb" unicode-bidi="normal" text-decoration="none" transform="matrix(1 0 0 1 1868.67 1166)">Planning &amp; simulations</text><text fill="#000000" fill-opacity="1" font-family="72 Brand,72 Brand_MSFontService,sans-serif" font-style="normal" font-variant="normal" font-weight="400" font-stretch="normal" font-size="41" text-anchor="start" direction="ltr" writing-mode="lr-tb" unicode-bidi="normal" text-decoration="none" transform="matrix(1 0 0 1 2441.55 1166)">Partner applications</text><text fill="#000000" fill-opacity="1" font-family="72 Brand,72 Brand_MSFontService,sans-serif" font-style="normal" font-variant="normal" font-weight="700" font-stretch="normal" font-size="41" text-anchor="start" direction="ltr" writing-mode="lr-tb" unicode-bidi="normal" text-decoration="none" transform="matrix(1 0 0 1 1852.2 1099)">Intelligent applications</text><text fill="#000000" fill-opacity="1" font-family="72 Brand,72 Brand_MSFontService,sans-serif" font-style="normal" font-variant="normal" font-weight="400" font-stretch="normal" font-size="41" text-anchor="start" direction="ltr" writing-mode="lr-tb" unicode-bidi="normal" text-decoration="none" transform="matrix(1 0 0 1 1320.69 1169)">Adaptive experiences</text><text fill="#000000" fill-opacity="1" font-family="72 Brand,72 Brand_MSFontService,sans-serif" font-style="normal" font-variant="normal" font-weight="400" font-stretch="normal" font-size="41" text-anchor="start" direction="ltr" writing-mode="lr-tb" unicode-bidi="normal" text-decoration="none" transform="matrix(1 0 0 1 949.712 1372)">Business</text><text fill="#000000" fill-opacity="1" font-family="72 Brand,72 Brand_MSFontService,sans-serif" font-style="normal" font-variant="normal" font-weight="400" font-stretch="normal" font-size="41" text-anchor="start" direction="ltr" writing-mode="lr-tb" unicode-bidi="normal" text-decoration="none" transform="matrix(1 0 0 1 949.712 1422)">semantics</text><text fill="#000000" fill-opacity="1" font-family="72 Brand,72 Brand_MSFontService,sans-serif" font-style="normal" font-variant="normal" font-weight="400" font-stretch="normal" font-size="41" text-anchor="start" direction="ltr" writing-mode="lr-tb" unicode-bidi="normal" text-decoration="none" transform="matrix(1 0 0 1 1879.14 1377)">AI operating system</text><text fill="#7F7F7F" fill-opacity="1" font-family="72 Brand,72 Brand_MSFontService,sans-serif" font-style="normal" font-variant="normal" font-weight="400" font-stretch="normal" font-size="41" text-anchor="start" direction="ltr" writing-mode="lr-tb" unicode-bidi="normal" text-decoration="none" transform="matrix(1 0 0 1 2811.94 1372)">Data engineering and </text><text fill="#7F7F7F" fill-opacity="1" font-family="72 Brand,72 Brand_MSFontService,sans-serif" font-style="normal" font-variant="normal" font-weight="400" font-stretch="normal" font-size="41" text-anchor="start" direction="ltr" writing-mode="lr-tb" unicode-bidi="normal" text-decoration="none" transform="matrix(1 0 0 1 2811.94 1422)">AI/ML</text><text fill="#7F7F7F" fill-opacity="1" font-family="72 Brand,72 Brand_MSFontService,sans-serif" font-style="normal" font-variant="normal" font-weight="400" font-stretch="normal" font-size="41" text-anchor="start" direction="ltr" writing-mode="lr-tb" unicode-bidi="normal" text-decoration="none" transform="matrix(1 0 0 1 2389.95 1371)">BW modernization</text><text fill="#7F7F7F" fill-opacity="1" font-family="72 Brand,72 Brand_MSFontService,sans-serif" font-style="normal" font-variant="normal" font-weight="700" font-stretch="normal" font-size="41" text-anchor="start" direction="ltr" writing-mode="lr-tb" unicode-bidi="normal" text-decoration="none" transform="matrix(1 0 0 1 2842.55 1298)">SAP Databricks</text><text fill="#000000" fill-opacity="1" font-family="72 Brand,72 Brand_MSFontService,sans-serif" font-style="normal" font-variant="normal" font-weight="700" font-stretch="normal" font-size="41" text-anchor="start" direction="ltr" writing-mode="lr-tb" unicode-bidi="normal" text-decoration="none" transform="matrix(1 0 0 1 949.712 1301)">SAP Datasphere</text><text fill="#000000" fill-opacity="1" font-family="72 Brand,72 Brand_MSFontService,sans-serif" font-style="normal" font-variant="normal" font-weight="700" font-stretch="normal" font-size="41" text-anchor="start" direction="ltr" writing-mode="lr-tb" unicode-bidi="normal" text-decoration="none" transform="matrix(1 0 0 1 1919.64 1303)">AI Foundation</text><text fill="#000000" fill-opacity="1" font-family="72 Brand,72 Brand_MSFontService,sans-serif" font-style="normal" font-variant="normal" font-weight="700" font-stretch="normal" font-size="41" text-anchor="start" direction="ltr" writing-mode="lr-tb" unicode-bidi="normal" text-decoration="none" transform="matrix(1 0 0 1 1349.06 1300)">SAP Analytics Cloud</text><text fill="#7F7F7F" fill-opacity="1" font-family="72 Brand,72 Brand_MSFontService,sans-serif" font-style="normal" font-variant="normal" font-weight="700" font-stretch="normal" font-size="41" text-anchor="start" direction="ltr" writing-mode="lr-tb" unicode-bidi="normal" text-decoration="none" transform="matrix(1 0 0 1 2454.82 1299)">SAP BW[/4]</text><text fill="#000000" fill-opacity="1" font-family="72 Brand,72 Brand_MSFontService,sans-serif" font-style="normal" font-variant="normal" font-weight="400" font-stretch="normal" font-size="41" text-anchor="start" direction="ltr" writing-mode="lr-tb" unicode-bidi="normal" text-decoration="none" transform="matrix(1 0 0 1 1343.89 1377)">Analytics and planning</text><text fill="#000000" fill-opacity="1" font-family="72 Brand,72 Brand_MSFontService,sans-serif" font-style="normal" font-variant="normal" font-weight="700" font-stretch="normal" font-size="41" text-anchor="start" direction="ltr" writing-mode="lr-tb" unicode-bidi="normal" text-decoration="none" transform="matrix(1 0 0 1 1945.23 1531)">Data products  </text><text fill="#000000" fill-opacity="1" font-family="72 Brand,72 Brand_MSFontService,sans-serif" font-style="normal" font-variant="normal" font-weight="400" font-stretch="normal" font-size="41" text-anchor="start" direction="ltr" writing-mode="lr-tb" unicode-bidi="normal" text-decoration="none" transform="matrix(1 0 0 1 1886.8 1597)">Zero copy delta share </text><text fill="#000000" fill-opacity="1" font-family="72 Brand,72 Brand_MSFontService,sans-serif" font-style="normal" font-variant="normal" font-weight="400" font-stretch="normal" font-size="41" text-anchor="start" direction="ltr" writing-mode="lr-tb" unicode-bidi="normal" text-decoration="none" transform="matrix(1 0 0 1 2415.3 1597)">Harmonized data models </text><text fill="#000000" fill-opacity="1" font-family="72 Brand,72 Brand_MSFontService,sans-serif" font-style="normal" font-variant="normal" font-weight="400" font-stretch="normal" font-size="41" text-anchor="start" direction="ltr" writing-mode="lr-tb" unicode-bidi="normal" text-decoration="none" transform="matrix(1 0 0 1 1387.8 1597)">Business ready</text><g clip-path="url(#clip19)" filter="url(#fx1)" transform="translate(3280 902)"><g><g><path d="M24.0002 59.2018C24.0002 39.7604 39.7606 24.0001 59.2019 24.0001L817.798 24.0001C837.24 24.0001 853 39.7604 853 59.2018L853 332.798C853 352.24 837.24 368 817.798 368L59.2019 368C39.7606 368 24.0002 352.24 24.0002 332.798Z" fill="#FF0000" fill-rule="evenodd" fill-opacity="1"/></g></g></g><path d="M3304 961.202C3304 941.76 3319.76 926 3339.2 926L4097.8 926C4117.24 926 4133 941.76 4133 961.202L4133 1234.8C4133 1254.24 4117.24 1270 4097.8 1270L3339.2 1270C3319.76 1270 3304 1254.24 3304 1234.8Z" fill="url(#fill20)" fill-rule="evenodd"/><g clip-path="url(#clip21)" filter="url(#fx2)" transform="translate(3285 1270)"><g><g><path d="M24 61.8988C24 40.9678 40.9679 23.9999 61.8988 23.9999L815.101 23.9999C836.032 23.9999 853 40.9678 853 61.8988L853 323.101C853 344.032 836.032 361 815.101 361L61.8988 361C40.9679 361 24 344.032 24 323.101Z" fill="#FF0000" fill-rule="evenodd" fill-opacity="1"/></g></g></g><path d="M3309 1331.9C3309 1310.97 3325.97 1294 3346.9 1294L4100.1 1294C4121.03 1294 4138 1310.97 4138 1331.9L4138 1593.1C4138 1614.03 4121.03 1631 4100.1 1631L3346.9 1631C3325.97 1631 3309 1614.03 3309 1593.1Z" fill="url(#fill22)" fill-rule="evenodd"/><g clip-path="url(#clip23)" filter="url(#fx3)" transform="translate(857 1642)"><g><g><path d="M24.0001 51.9112C24.0001 36.4964 36.4962 24.0001 51.9109 24.0001L3248.09 24.0001C3263.5 24.0001 3276 36.4964 3276 51.9112L3276 299.089C3276 314.504 3263.5 327 3248.09 327L51.9109 327C36.4962 327 24.0001 314.504 24.0001 299.089Z" fill="#FF0000" fill-rule="evenodd" fill-opacity="1"/></g></g></g><path d="M881 1693.91C881 1678.5 893.496 1666 908.911 1666L4105.09 1666C4120.5 1666 4133 1678.5 4133 1693.91L4133 1941.09C4133 1956.5 4120.5 1969 4105.09 1969L908.911 1969C893.496 1969 881 1956.5 881 1941.09Z" fill="url(#fill24)" fill-rule="evenodd"/><text fill="#000000" fill-opacity="1" font-family="72 Brand,72 Brand_MSFontService,sans-serif" font-style="normal" font-variant="normal" font-weight="400" font-stretch="normal" font-size="41" text-anchor="start" direction="ltr" writing-mode="lr-tb" unicode-bidi="normal" text-decoration="none" transform="matrix(1 0 0 1 943.253 1834)">Integrated multi</text><text fill="#000000" fill-opacity="1" font-family="72 Brand,72 Brand_MSFontService,sans-serif" font-style="normal" font-variant="normal" font-weight="400" font-stretch="normal" font-size="41" text-anchor="start" direction="ltr" writing-mode="lr-tb" unicode-bidi="normal" text-decoration="none" transform="matrix(1 0 0 1 1231.43 1834)">-</text><text fill="#000000" fill-opacity="1" font-family="72 Brand,72 Brand_MSFontService,sans-serif" font-style="normal" font-variant="normal" font-weight="400" font-stretch="normal" font-size="41" text-anchor="start" direction="ltr" writing-mode="lr-tb" unicode-bidi="normal" text-decoration="none" transform="matrix(1 0 0 1 1244.61 1834)">tier storage</text><text fill="#000000" fill-opacity="1" font-family="72 Brand,72 Brand_MSFontService,sans-serif" font-style="normal" font-variant="normal" font-weight="400" font-stretch="normal" font-size="41" text-anchor="start" direction="ltr" writing-mode="lr-tb" unicode-bidi="normal" text-decoration="none" transform="matrix(1 0 0 1 1648.14 1836)">Multi</text><text fill="#000000" fill-opacity="1" font-family="72 Brand,72 Brand_MSFontService,sans-serif" font-style="normal" font-variant="normal" font-weight="400" font-stretch="normal" font-size="41" text-anchor="start" direction="ltr" writing-mode="lr-tb" unicode-bidi="normal" text-decoration="none" transform="matrix(1 0 0 1 1738.66 1836)">-</text><text fill="#000000" fill-opacity="1" font-family="72 Brand,72 Brand_MSFontService,sans-serif" font-style="normal" font-variant="normal" font-weight="400" font-stretch="normal" font-size="41" text-anchor="start" direction="ltr" writing-mode="lr-tb" unicode-bidi="normal" text-decoration="none" transform="matrix(1 0 0 1 1751.84 1836)">model processing</text><text fill="#000000" fill-opacity="1" font-family="72 Brand,72 Brand_MSFontService,sans-serif" font-style="normal" font-variant="normal" font-weight="400" font-stretch="normal" font-size="41" text-anchor="start" direction="ltr" writing-mode="lr-tb" unicode-bidi="normal" text-decoration="none" transform="matrix(1 0 0 1 2267.53 1833)">Embedded data science </text><text fill="#000000" fill-opacity="1" font-family="72 Brand,72 Brand_MSFontService,sans-serif" font-style="normal" font-variant="normal" font-weight="400" font-stretch="normal" font-size="41" text-anchor="start" direction="ltr" writing-mode="lr-tb" unicode-bidi="normal" text-decoration="none" transform="matrix(1 0 0 1 2859.25 1832)">Intelligent data applications</text><text fill="#000000" fill-opacity="1" font-family="72 Brand,72 Brand_MSFontService,sans-serif" font-style="normal" font-variant="normal" font-weight="400" font-stretch="normal" font-size="41" text-anchor="start" direction="ltr" writing-mode="lr-tb" unicode-bidi="normal" text-decoration="none" transform="matrix(1 0 0 1 3497.99 1833)">Vector embeddings &amp; RAG </text><text fill="#000000" fill-opacity="1" font-family="72 Brand,72 Brand_MSFontService,sans-serif" font-style="normal" font-variant="normal" font-weight="400" font-stretch="normal" font-size="41" text-anchor="start" direction="ltr" writing-mode="lr-tb" unicode-bidi="normal" text-decoration="none" transform="matrix(1 0 0 1 1381.7 1935)">Lifecycle management</text><text fill="#000000" fill-opacity="1" font-family="72 Brand,72 Brand_MSFontService,sans-serif" font-style="normal" font-variant="normal" font-weight="400" font-stretch="normal" font-size="41" text-anchor="start" direction="ltr" writing-mode="lr-tb" unicode-bidi="normal" text-decoration="none" transform="matrix(1 0 0 1 2041.16 1936)">Machine learning</text><text fill="#000000" fill-opacity="1" font-family="72 Brand,72 Brand_MSFontService,sans-serif" font-style="normal" font-variant="normal" font-weight="400" font-stretch="normal" font-size="41" text-anchor="start" direction="ltr" writing-mode="lr-tb" unicode-bidi="normal" text-decoration="none" transform="matrix(1 0 0 1 2594.86 1934)">Security and authorization</text><text fill="#000000" fill-opacity="1" font-family="72 Brand,72 Brand_MSFontService,sans-serif" font-style="normal" font-variant="normal" font-weight="400" font-stretch="normal" font-size="41" text-anchor="start" direction="ltr" writing-mode="lr-tb" unicode-bidi="normal" text-decoration="none" transform="matrix(1 0 0 1 3254.32 1934)">Data privacy and protection</text><text fill="#000000" fill-opacity="1" font-family="72 Brand,72 Brand_MSFontService,sans-serif" font-style="normal" font-variant="normal" font-weight="700" font-stretch="normal" font-size="41" text-anchor="start" direction="ltr" writing-mode="lr-tb" unicode-bidi="normal" text-decoration="none" transform="matrix(1 0 0 1 2267.53 1742)">SAP HANA Cloud</text><text fill="#000000" fill-opacity="1" font-family="72 Brand,72 Brand_MSFontService,sans-serif" font-style="normal" font-variant="normal" font-weight="400" font-stretch="normal" font-size="41" text-anchor="start" direction="ltr" writing-mode="lr-tb" unicode-bidi="normal" text-decoration="none" transform="matrix(1 0 0 1 3419.06 1115)">Geo</text><text fill="#000000" fill-opacity="1" font-family="72 Brand,72 Brand_MSFontService,sans-serif" font-style="normal" font-variant="normal" font-weight="400" font-stretch="normal" font-size="41" text-anchor="start" direction="ltr" writing-mode="lr-tb" unicode-bidi="normal" text-decoration="none" transform="matrix(1 0 0 1 3496.4 1115)">-</text><text fill="#000000" fill-opacity="1" font-family="72 Brand,72 Brand_MSFontService,sans-serif" font-style="normal" font-variant="normal" font-weight="400" font-stretch="normal" font-size="41" text-anchor="start" direction="ltr" writing-mode="lr-tb" unicode-bidi="normal" text-decoration="none" transform="matrix(1 0 0 1 3509.58 1115)">coding</text><text fill="#000000" fill-opacity="1" font-family="72 Brand,72 Brand_MSFontService,sans-serif" font-style="normal" font-variant="normal" font-weight="400" font-stretch="normal" font-size="41" text-anchor="start" direction="ltr" writing-mode="lr-tb" unicode-bidi="normal" text-decoration="none" transform="matrix(1 0 0 1 3419.06 1165)">and location</text><text fill="#000000" fill-opacity="1" font-family="72 Brand,72 Brand_MSFontService,sans-serif" font-style="normal" font-variant="normal" font-weight="400" font-stretch="normal" font-size="41" text-anchor="start" direction="ltr" writing-mode="lr-tb" unicode-bidi="normal" text-decoration="none" transform="matrix(1 0 0 1 3645.93 1165)">-</text><text fill="#000000" fill-opacity="1" font-family="72 Brand,72 Brand_MSFontService,sans-serif" font-style="normal" font-variant="normal" font-weight="400" font-stretch="normal" font-size="41" text-anchor="start" direction="ltr" writing-mode="lr-tb" unicode-bidi="normal" text-decoration="none" transform="matrix(1 0 0 1 3419.06 1214)">based services</text><text fill="#000000" fill-opacity="1" font-family="72 Brand,72 Brand_MSFontService,sans-serif" font-style="normal" font-variant="normal" font-weight="400" font-stretch="normal" font-size="41" text-anchor="start" direction="ltr" writing-mode="lr-tb" unicode-bidi="normal" text-decoration="none" transform="matrix(1 0 0 1 3789.12 1140)">Mapping </text><text fill="#000000" fill-opacity="1" font-family="72 Brand,72 Brand_MSFontService,sans-serif" font-style="normal" font-variant="normal" font-weight="400" font-stretch="normal" font-size="41" text-anchor="start" direction="ltr" writing-mode="lr-tb" unicode-bidi="normal" text-decoration="none" transform="matrix(1 0 0 1 3789.12 1190)">and Routing</text><text fill="#000000" fill-opacity="1" font-family="72 Brand,72 Brand_MSFontService,sans-serif" font-style="normal" font-variant="normal" font-weight="400" font-stretch="normal" font-size="41" text-anchor="start" direction="ltr" writing-mode="lr-tb" unicode-bidi="normal" text-decoration="none" transform="matrix(1 0 0 1 3417.29 1515)">Master data</text><text fill="#000000" fill-opacity="1" font-family="72 Brand,72 Brand_MSFontService,sans-serif" font-style="normal" font-variant="normal" font-weight="400" font-stretch="normal" font-size="41" text-anchor="start" direction="ltr" writing-mode="lr-tb" unicode-bidi="normal" text-decoration="none" transform="matrix(1 0 0 1 3417.29 1565)">consolidation</text><text fill="#000000" fill-opacity="1" font-family="72 Brand,72 Brand_MSFontService,sans-serif" font-style="normal" font-variant="normal" font-weight="400" font-stretch="normal" font-size="41" text-anchor="start" direction="ltr" writing-mode="lr-tb" unicode-bidi="normal" text-decoration="none" transform="matrix(1 0 0 1 3792.32 1515)">Data quality </text><text fill="#000000" fill-opacity="1" font-family="72 Brand,72 Brand_MSFontService,sans-serif" font-style="normal" font-variant="normal" font-weight="400" font-stretch="normal" font-size="41" text-anchor="start" direction="ltr" writing-mode="lr-tb" unicode-bidi="normal" text-decoration="none" transform="matrix(1 0 0 1 3792.32 1565)">management</text><text fill="#000000" fill-opacity="1" font-family="72 Brand,72 Brand_MSFontService,sans-serif" font-style="normal" font-variant="normal" font-weight="700" font-stretch="normal" font-size="41" text-anchor="start" direction="ltr" writing-mode="lr-tb" unicode-bidi="normal" text-decoration="none" transform="matrix(1 0 0 1 3461.9 1009)">SAP HANA Spatial Services</text><text fill="#000000" fill-opacity="1" font-family="72 Brand,72 Brand_MSFontService,sans-serif" font-style="normal" font-variant="normal" font-weight="700" font-stretch="normal" font-size="41" text-anchor="start" direction="ltr" writing-mode="lr-tb" unicode-bidi="normal" text-decoration="none" transform="matrix(1 0 0 1 3461.9 1385)">SAP Master Data Governance</text><text fill="#000000" fill-opacity="1" font-family="Arial,Arial_MSFontService,sans-serif" font-style="normal" font-variant="normal" font-weight="400" font-stretch="normal" font-size="41" text-anchor="start" direction="ltr" writing-mode="lr-tb" unicode-bidi="normal" text-decoration="none" transform="matrix(1 0 0 1 2596.3 2115)">•</text><text fill="#000000" fill-opacity="1" font-family="72 Brand,72 Brand_MSFontService,sans-serif" font-style="normal" font-variant="normal" font-weight="400" font-stretch="normal" font-size="41" text-anchor="start" direction="ltr" writing-mode="lr-tb" unicode-bidi="normal" text-decoration="none" transform="matrix(1 0 0 1 2629.99 2115)">Extend on</text><text fill="#000000" fill-opacity="1" font-family="72 Brand,72 Brand_MSFontService,sans-serif" font-style="normal" font-variant="normal" font-weight="400" font-stretch="normal" font-size="41" text-anchor="start" direction="ltr" writing-mode="lr-tb" unicode-bidi="normal" text-decoration="none" transform="matrix(1 0 0 1 2815.61 2115)">-</text><text fill="#000000" fill-opacity="1" font-family="72 Brand,72 Brand_MSFontService,sans-serif" font-style="normal" font-variant="normal" font-weight="400" font-stretch="normal" font-size="41" text-anchor="start" direction="ltr" writing-mode="lr-tb" unicode-bidi="normal" text-decoration="none" transform="matrix(1 0 0 1 2828.79 2115)">premise workloads in SAP HANA to SAP HANA Cloud</text><g><g><g><g><path d="M42.8156 59.8153C42.8156 57.163 42.1841 54.637 40.9212 52.2374 39.7845 49.8377 38.0794 47.8801 35.8061 46.3645L23.113 37.8392C19.4503 35.3133 16.5455 32.0295 14.3984 27.9879 12.3776 24.0727 11.3672 19.8416 11.3672 15.2949L11.3672 12.7776C11.3672 9.24124 13.1354 7.47306 16.6717 7.47306 20.2081 7.47306 21.9763 9.24124 21.9763 12.7776L21.9763 15.2949C21.9763 21.1046 24.3128 25.5883 28.9859 28.7457L42.6262 38.0287C43.8892 39.0391 45.0259 39.9863 46.0363 40.8704 47.1729 41.8809 48.057 43.0175 48.6886 44.2805 50.3304 41.6282 52.4775 39.4812 55.1298 37.8392L68.0121 29.3141C70.1594 27.7985 71.8642 25.8408 73.1276 23.4412 74.3905 21.1678 75.0222 18.6418 75.0222 15.8632L75.0222 13.3459C75.0222 11.7041 75.4641 10.3779 76.348 9.36753 77.3587 8.35715 78.6845 7.85196 80.3262 7.85196 81.9686 7.85196 83.2314 8.35715 84.1153 9.36753 85.1259 10.3779 85.6309 11.7041 85.6309 13.3459L85.6309 15.8632C85.6309 20.41 84.6209 24.641 82.5997 28.5563 80.5791 32.5979 77.6739 35.8817 73.8855 38.4076L61.0026 46.9328C58.8556 48.4484 57.1506 50.3429 55.8876 52.6163 54.7509 55.0159 54.0562 57.6051 53.8037 60.3837L53.8037 60.1153C53.7666 61.233 53.2916 65.093 48.4991 65.093 42.8951 65.093 42.8156 59.8153 42.8156 59.8153Z" fill="#89D1FF" fill-rule="nonzero" fill-opacity="1" transform="matrix(1 0 0 1 3328 1334)"/><path d="M57.592 83.6643C57.592 88.6864 53.5207 92.758 48.4985 92.758 43.4763 92.758 39.4049 88.6864 39.4049 83.6643 39.4049 78.6421 43.4763 74.5705 48.4985 74.5705 53.5207 74.5705 57.592 78.6421 57.592 83.6643Z" fill="#89D1FF" fill-rule="nonzero" fill-opacity="1" transform="matrix(1 0 0 1 3328 1334)"/><path d="M34.0459 15.13C37.8539 15.13 40.9409 11.9869 40.9409 8.10968 40.9409 4.23245 37.8539 1.08936 34.0459 1.08936 30.238 1.08936 27.151 4.23245 27.151 8.10968 27.151 11.9869 30.238 15.13 34.0459 15.13Z" fill="#89D1FF" fill-rule="nonzero" fill-opacity="1" transform="matrix(1 0 0 1 3328 1334)"/><path d="M48.4991 29.1702C52.3071 29.1702 55.3941 26.0271 55.3941 22.1499 55.3941 18.2727 52.3071 15.1296 48.4991 15.1296 44.6911 15.1296 41.6042 18.2727 41.6042 22.1499 41.6042 26.0271 44.6911 29.1702 48.4991 29.1702Z" fill="#89D1FF" fill-rule="nonzero" fill-opacity="1" transform="matrix(1 0 0 1 3328 1334)"/><path d="M62.9505 15.13C66.759 15.13 69.846 11.9869 69.846 8.10968 69.846 4.23245 66.759 1.08936 62.9505 1.08936 59.1429 1.08936 56.0559 4.23245 56.0559 8.10968 56.0559 11.9869 59.1429 15.13 62.9505 15.13Z" fill="#89D1FF" fill-rule="nonzero" fill-opacity="1" transform="matrix(1 0 0 1 3328 1334)"/></g></g></g></g><g clip-path="url(#clip25)"><g clip-path="url(#clip26)"><g clip-path="url(#clip27)"><path d="M1758.99 985.124 1775.19 994.755 1775.19 1011.73 1758.99 1021.13 1742.8 1011.73 1742.8 994.755 1758.99 985.124ZM1758.99 972.562 1779.76 960.214 1761.71 949.73C1760.04 948.753 1757.96 948.753 1756.29 949.73L1738.24 960.214 1759.01 972.562ZM1769.57 978.837 1783.36 987.043C1785 988.02 1786 989.782 1786 991.69L1786 1005.46 1806.25 993.711 1806.25 978.703C1806.25 976.783 1805.23 974.998 1803.57 974.033L1790.47 966.422 1769.58 978.849ZM1775.2 1024.22 1761.72 1032.06C1761.72 1032.06 1761.69 1032.06 1761.68 1032.07 1761.65 1032.08 1761.62 1032.09 1761.6 1032.1 1760.78 1032.55 1759.89 1032.78 1759.02 1032.78L1759.01 1032.78C1758.13 1032.78 1757.24 1032.55 1756.42 1032.1 1756.4 1032.09 1756.37 1032.08 1756.35 1032.07 1756.33 1032.07 1756.32 1032.07 1756.3 1032.06L1742.82 1024.22 1742.82 1048.45 1756.3 1056.28C1757.14 1056.76 1758.07 1057.01 1759.02 1057.01 1759.96 1057.01 1760.89 1056.76 1761.73 1056.28L1775.22 1048.45 1775.22 1024.23ZM1786 1017.95 1786 1042.16 1803.56 1031.97C1805.22 1031 1806.24 1029.22 1806.24 1027.3L1806.24 1006.19 1785.99 1017.95ZM1732 1005.46 1732 991.69C1732 989.782 1733 988.02 1734.64 987.043L1748.43 978.837 1727.54 966.411 1714.44 974.022C1712.78 974.987 1711.76 976.772 1711.76 978.691L1711.76 993.7 1732.01 1005.45ZM1732 1017.95 1711.75 1006.19 1711.75 1027.3C1711.75 1029.22 1712.77 1031 1714.43 1031.97L1731.99 1042.16 1731.99 1017.95Z" fill="#89D1FF" fill-rule="nonzero" fill-opacity="1"/></g></g></g><g><g><g><path d="M2236.94 1699.19C2236.94 1686.45 2215.11 1681 2194.49 1681 2173.88 1681 2152.06 1686.45 2152.06 1699.19L2152.06 1758.6C2152.06 1771.94 2173.89 1778 2194.49 1778 2215.1 1778 2236.93 1771.94 2236.93 1758.6L2236.93 1699.19ZM2227.24 1738.59C2227.24 1742.23 2215.11 1748.29 2194.51 1748.29 2173.9 1748.29 2161.77 1742.23 2161.77 1738.59L2161.77 1731.31C2170.26 1735.55 2182.38 1737.97 2194.51 1737.97 2206.63 1737.97 2218.75 1735.54 2227.24 1731.31L2227.24 1738.59ZM2227.24 1717.98C2227.24 1721.62 2215.11 1727.68 2194.51 1727.68 2173.9 1727.68 2161.77 1721.62 2161.77 1717.98L2161.77 1711.32C2170.26 1715.56 2182.38 1717.38 2194.51 1717.38 2206.63 1717.38 2218.75 1715.56 2227.24 1711.32L2227.24 1717.98ZM2194.49 1690.7C2216.93 1690.7 2227.23 1697.36 2227.23 1699.19 2227.23 1701.01 2216.93 1707.68 2194.49 1707.68 2172.06 1707.68 2161.76 1701 2161.76 1699.19 2161.76 1697.37 2172.06 1690.7 2194.49 1690.7ZM2194.49 1768.3C2173.89 1768.3 2161.76 1762.24 2161.76 1758.6L2161.76 1751.32C2170.25 1755.57 2182.37 1757.99 2194.49 1757.99 2206.62 1757.99 2218.74 1755.56 2227.23 1751.32L2227.23 1758.6C2227.23 1762.24 2214.5 1768.3 2194.49 1768.3Z" fill="#89D1FF" fill-rule="nonzero" fill-opacity="1"/></g></g></g><g><g><g><path d="M48.4951 0C21.7573 0 0 21.7573 0 48.4951 0 75.2329 21.7573 96.9902 48.4951 96.9902 75.2329 96.9902 96.9902 75.2329 96.9902 48.4951 96.9902 21.7573 75.243 0 48.4951 0ZM72.0873 40.016 86.3334 40.016C86.9484 42.7483 87.2912 45.5814 87.2912 48.5052 87.2912 51.429 86.9383 54.252 86.3334 56.9944L72.0772 56.9944C72.4805 54.2419 72.7427 51.4189 72.7427 48.5052 72.7427 45.5914 72.4805 42.7684 72.0873 40.016ZM82.7542 30.317 69.8894 30.317C67.7419 23.1587 64.687 16.9682 61.8338 12.1187 70.8371 15.4257 78.2878 21.9488 82.7542 30.317ZM48.6262 87.2912C48.6262 87.2912 48.5354 87.2912 48.4951 87.2912 48.4144 87.2912 48.3439 87.2912 48.2632 87.2811 45.6116 83.7221 40.4294 75.848 37.2233 66.6833L59.7669 66.6833C56.5003 76.0093 51.3181 83.712 48.6161 87.2912ZM34.7632 56.9843C34.2894 54.2318 33.9466 51.4189 33.9466 48.4951 33.9466 45.5713 34.2894 42.7584 34.7632 40.0059L62.227 40.0059C62.7008 42.7584 63.0537 45.5713 63.0537 48.4951 63.0537 51.4189 62.7109 54.2318 62.2472 56.9843L34.7733 56.9843ZM48.3943 9.69902C48.3943 9.69902 48.4649 9.69902 48.4951 9.69902 48.5556 9.69902 48.6161 9.69902 48.6867 9.69902 50.8846 12.6027 56.1979 20.376 59.7064 30.3069L37.2938 30.3069C40.8125 20.3155 46.1258 12.6733 48.4044 9.69902ZM35.1564 12.1087C32.2931 16.9783 29.2483 23.1688 27.1008 30.3069L14.2461 30.3069C18.7125 21.9387 26.1531 15.4156 35.1564 12.1087ZM9.69902 48.4951C9.69902 45.5814 10.0519 42.7483 10.6568 40.0059L24.9029 40.0059C24.5097 42.7584 24.2476 45.5814 24.2476 48.4951 24.2476 51.4088 24.5198 54.2218 24.9231 56.9843L10.6669 56.9843C10.0519 54.252 9.7091 51.4189 9.7091 48.4951ZM14.2461 66.6833 27.121 66.6833C29.2886 73.8618 32.3536 80.0825 35.1665 84.8816 26.1632 81.5746 18.7125 75.0515 14.2461 66.6833ZM61.8338 84.8916C64.6669 80.0623 67.7318 73.8517 69.8894 66.6934L82.7542 66.6934C78.2878 75.0716 70.8371 81.5847 61.8338 84.8916Z" fill="#89D1FF" fill-rule="nonzero" fill-opacity="1" transform="matrix(1 0 0 1.01031 3328 954)"/></g></g></g></g></g></svg>