<svg viewBox="0 0 1159.33 55.58" xmlns="http://www.w3.org/2000/svg" xmlns:xlink="http://www.w3.org/1999/xlink" id="sap-btp" overflow="hidden"><defs><linearGradient x1="55.8921" y1="44.8" x2="55.8921" y2="-10.5" gradientUnits="userSpaceOnUse" id="Unbenannter_Verlauf_2" gradientTransform="matrix(1 0 0 -1 0 44.8)"><stop offset="0" stop-color="#00B8F1"/><stop offset="0.016" stop-color="#00B5EF"/><stop offset="0.308" stop-color="#0D90D8"/><stop offset="0.578" stop-color="#1675C8"/><stop offset="0.817" stop-color="#1C64BE"/><stop offset="1" stop-color="#1E5FBB"/></linearGradient></defs><path d="M0 55.3 56.494 55.3 111.784 0 0 0 0 55.3" stroke-width="0" fill="url(#Unbenannter_Verlauf_2)" fill-rule="evenodd"/><path d="M66.3372 10.3972 55.3347 10.3903 55.3347 36.5534 45.7219 10.3903 36.191 10.3903 27.9832 32.269C27.1086 26.7531 21.4025 24.8483 16.9127 23.4198 13.9486 22.4674 10.8026 21.0679 10.8318 19.5199 10.8554 18.2496 12.5186 17.0695 15.8145 17.2472 18.0289 17.3639 19.9809 17.5429 23.8668 19.4172L27.6889 12.7601C24.1417 10.9553 19.2395 9.8155 15.2244 9.81133L15.2008 9.81133C10.5166 9.81133 6.61401 11.3288 4.19415 13.8292 2.50872 15.5757 1.59936 17.7942 1.56188 20.2474 1.50079 23.6238 2.73918 26.0187 5.33952 27.9291 7.53725 29.5395 10.3458 30.5835 12.8226 31.3513 15.8783 32.2967 18.3704 33.12 18.3412 34.8763 18.319 35.5135 18.0761 36.1091 17.6179 36.5922 16.8571 37.378 15.6868 37.6737 14.0707 37.7015 10.9553 37.7682 8.64236 37.2808 4.96051 35.1053L1.56188 41.854C5.23262 43.9448 9.58088 45.1693 14.018 45.1693L14.5886 45.161C18.4509 45.0916 21.5663 43.992 24.057 41.9873 24.2 41.8748 24.3291 41.7568 24.461 41.6402L23.3573 44.5876 33.3533 44.5876 35.0304 39.4869C36.7866 40.0881 38.7844 40.4185 40.9058 40.4185 42.9702 40.4185 44.9167 40.1005 46.641 39.5369L48.257 44.5862 64.5588 44.5862 64.5588 34.0252 68.1143 34.0252C76.7053 34.0252 81.7907 29.6464 81.7907 22.3133 81.7907 14.1429 76.8525 10.3944 66.3358 10.3944L66.3372 10.3972ZM40.9072 32.7827C39.623 32.7827 38.4193 32.5605 37.3822 32.1676L40.8697 21.1637 40.9363 21.1637 44.3627 32.1982C43.3326 32.5633 42.1567 32.7827 40.9086 32.7827L40.9072 32.7827ZM66.9842 26.4616 64.5602 26.4616 64.5602 17.5957 66.9842 17.5957C70.2162 17.5957 72.7944 18.6689 72.7944 21.9703 72.7944 25.387 70.2162 26.463 66.9842 26.463" stroke-width="0" fill="#FFFFFF" fill-rule="evenodd"/><path d="M111.368 10.275 125.339 10.275C133.106 10.275 137.381 12.9365 137.381 18.8244 137.381 22.8547 135.28 25.7855 131.396 26.7379 135.963 27.3737 138.723 30.3281 138.723 34.9207 138.723 41.8818 133.081 44.6904 125.973 44.6904L111.366 44.6904 111.366 10.275 111.368 10.275ZM130.761 19.7518C130.761 16.7474 128.684 15.6243 124.875 15.6243L117.865 15.6243 117.865 24.368 124.655 24.368C129.101 24.368 130.761 22.7561 130.761 19.7518ZM132.179 34.3584C132.179 31.0861 129.712 29.5465 125.461 29.5465L117.865 29.5465 117.865 39.3411 125.509 39.3411C129.417 39.3411 132.179 38.2666 132.179 34.3584Z" stroke-width="0" fill="#002A86"/><path d="M151.399 15.9658 140.871 15.9658 140.871 10.275 168.424 10.275 168.424 15.9658 157.921 15.9658 157.921 44.6904 151.4 44.6904 151.4 15.9658 151.399 15.9658Z" stroke-width="0" fill="#002A86"/><path d="M173.747 10.275 188.33 10.275C196.926 10.275 200.958 14.6969 200.958 21.2415 200.958 27.3473 197.025 32.5508 188.671 32.5508L180.244 32.5508 180.244 44.6904 173.747 44.6904 173.747 10.275 173.747 10.275ZM194.436 21.315C194.436 17.7734 192.091 15.8686 187.572 15.8686L180.244 15.8686 180.244 27.0308 187.768 27.0308C192.31 27.0308 194.437 24.8331 194.437 21.315L194.436 21.315Z" stroke-width="0" fill="#002A86"/></svg>